<svg width="87" height="86" viewBox="0 0 87 86" fill="none" xmlns="http://www.w3.org/2000/svg">
<path fill-rule="evenodd" clip-rule="evenodd" d="M5.22347 13.1731C3.29838 14.544 2.5 15.8677 2.5 17.0482C2.5 18.2287 3.29838 19.5524 5.22347 20.9233C7.12326 22.2762 9.93707 23.5356 13.5041 24.61C20.6256 26.7551 30.5239 28.0964 41.5 28.0964C52.4761 28.0964 62.3744 26.7551 69.4959 24.61C73.0629 23.5356 75.8767 22.2762 77.7765 20.9233C79.7016 19.5524 80.5 18.2287 80.5 17.0482C80.5 15.8677 79.7016 14.544 77.7765 13.1731C75.8767 11.8202 73.0629 10.5608 69.4959 9.48634C62.3744 7.34132 52.4761 6 41.5 6C30.5239 6 20.6256 7.34132 13.5041 9.48634C9.93707 10.5608 7.12326 11.8202 5.22347 13.1731ZM12.9273 7.57133C20.283 5.35576 30.3847 4 41.5 4C52.6153 4 62.717 5.35576 70.0727 7.57133C73.7442 8.6772 76.7882 10.014 78.9367 11.5439C81.0598 13.0559 82.5 14.9017 82.5 17.0482C82.5 17.1591 82.4962 17.2692 82.4886 17.3786C82.4961 17.428 82.5 17.4787 82.5 17.5303V45.4814V73.0937C82.5 75.2257 81.0657 77.0546 78.9526 78.5498C76.8141 80.0631 73.7821 81.3838 70.119 82.4758C62.7801 84.6637 52.6791 86.0002 41.5 86.0002C30.3209 86.0002 20.2199 84.6637 12.881 82.4758C9.21789 81.3838 6.18594 80.0631 4.04737 78.5498C1.93433 77.0546 0.5 75.2257 0.5 73.0937V45.4814V17.5303C0.5 17.4787 0.503905 17.428 0.511434 17.3786C0.503846 17.2692 0.5 17.1591 0.5 17.0482C0.5 14.9017 1.9402 13.0559 4.06332 11.5439C6.21176 10.014 9.25581 8.6772 12.9273 7.57133ZM2.5 21.2476V45.4814C2.5 46.5831 3.27102 47.8445 5.19147 49.1646C7.08128 50.4636 9.88405 51.6728 13.4448 52.704C20.5531 54.7626 30.4548 56.0477 41.5 56.0477C52.5452 56.0477 62.4469 54.7626 69.5552 52.704C73.116 51.6728 75.9187 50.4636 77.8085 49.1646C79.729 47.8445 80.5 46.5831 80.5 45.4814V21.2476C80.0394 21.7067 79.5132 22.1419 78.9367 22.5525C76.7882 24.0824 73.7442 25.4192 70.0727 26.5251C62.717 28.7406 52.6153 30.0964 41.5 30.0964C30.3847 30.0964 20.283 28.7406 12.9273 26.5251C9.25581 25.4192 6.21176 24.0824 4.06332 22.5525C3.48681 22.1419 2.96064 21.7067 2.5 21.2476ZM80.5 49.5561C80.0398 49.9995 79.5149 50.4186 78.9415 50.8128C76.8035 52.2824 73.7729 53.5648 70.1115 54.6251C62.7753 56.7497 52.677 58.0477 41.5 58.0477C30.323 58.0477 20.2247 56.7497 12.8885 54.6251C9.22706 53.5648 6.1965 52.2824 4.05853 50.8128C3.4851 50.4186 2.96025 49.9995 2.5 49.5561V73.0937C2.5 74.2559 3.28789 75.5623 5.20263 76.9172C7.09184 78.254 9.89322 79.4981 13.4524 80.5592C20.5578 82.6775 30.4569 84.0002 41.5 84.0002C52.5431 84.0002 62.4422 82.6775 69.5476 80.5592C73.1068 79.4981 75.9082 78.254 77.7974 76.9172C79.7121 75.5623 80.5 74.2559 80.5 73.0937V49.5561Z" fill="#19242D"/>
<path d="M46.5 24.0963C68.5914 24.0963 86.5 18.7022 86.5 12.0482C86.5 5.39415 68.5914 0 46.5 0C24.4086 0 6.5 5.39415 6.5 12.0482C6.5 18.7022 24.4086 24.0963 46.5 24.0963Z" fill="#D1DEE7"/>
<path d="M6.5 12.5302V68.0936C6.5 74.6818 24.2778 80 46.5 80C68.7222 80 86.5 74.6818 86.5 68.0936V12.5302" fill="#D1DEE7"/>
<path fill-rule="evenodd" clip-rule="evenodd" d="M5.22347 13.1731C3.29838 14.544 2.5 15.8677 2.5 17.0482C2.5 18.2287 3.29838 19.5524 5.22347 20.9233C7.12326 22.2762 9.93707 23.5356 13.5041 24.61C20.6256 26.7551 30.5239 28.0964 41.5 28.0964C52.4761 28.0964 62.3744 26.7551 69.4959 24.61C73.0629 23.5356 75.8767 22.2762 77.7765 20.9233C79.7016 19.5524 80.5 18.2287 80.5 17.0482C80.5 15.8677 79.7016 14.544 77.7765 13.1731C75.8767 11.8202 73.0629 10.5608 69.4959 9.48634C62.3744 7.34132 52.4761 6 41.5 6C30.5239 6 20.6256 7.34132 13.5041 9.48634C9.93707 10.5608 7.12326 11.8202 5.22347 13.1731ZM12.9273 7.57133C20.283 5.35576 30.3847 4 41.5 4C52.6153 4 62.717 5.35576 70.0727 7.57133C73.7442 8.6772 76.7882 10.014 78.9367 11.5439C81.0598 13.0559 82.5 14.9017 82.5 17.0482C82.5 17.1591 82.4962 17.2692 82.4886 17.3786C82.4961 17.428 82.5 17.4787 82.5 17.5303V45.4814V73.0937C82.5 75.2257 81.0657 77.0546 78.9526 78.5498C76.8141 80.0631 73.7821 81.3838 70.119 82.4758C62.7801 84.6637 52.6791 86.0002 41.5 86.0002C30.3209 86.0002 20.2199 84.6637 12.881 82.4758C9.21789 81.3838 6.18594 80.0631 4.04737 78.5498C1.93433 77.0546 0.5 75.2257 0.5 73.0937V45.4814V17.5303C0.5 17.4787 0.503905 17.428 0.511434 17.3786C0.503846 17.2692 0.5 17.1591 0.5 17.0482C0.5 14.9017 1.9402 13.0559 4.06332 11.5439C6.21176 10.014 9.25581 8.6772 12.9273 7.57133ZM2.5 21.2476V45.4814C2.5 46.5831 3.27102 47.8445 5.19147 49.1646C7.08128 50.4636 9.88405 51.6728 13.4448 52.704C20.5531 54.7626 30.4548 56.0477 41.5 56.0477C52.5452 56.0477 62.4469 54.7626 69.5552 52.704C73.116 51.6728 75.9187 50.4636 77.8085 49.1646C79.729 47.8445 80.5 46.5831 80.5 45.4814V21.2476C80.0394 21.7067 79.5132 22.1419 78.9367 22.5525C76.7882 24.0824 73.7442 25.4192 70.0727 26.5251C62.717 28.7406 52.6153 30.0964 41.5 30.0964C30.3847 30.0964 20.283 28.7406 12.9273 26.5251C9.25581 25.4192 6.21176 24.0824 4.06332 22.5525C3.48681 22.1419 2.96064 21.7067 2.5 21.2476ZM80.5 49.5561C80.0398 49.9995 79.5149 50.4186 78.9415 50.8128C76.8035 52.2824 73.7729 53.5648 70.1115 54.6251C62.7753 56.7497 52.677 58.0477 41.5 58.0477C30.323 58.0477 20.2247 56.7497 12.8885 54.6251C9.22706 53.5648 6.1965 52.2824 4.05853 50.8128C3.4851 50.4186 2.96025 49.9995 2.5 49.5561V73.0937C2.5 74.2559 3.28789 75.5623 5.20263 76.9172C7.09184 78.254 9.89322 79.4981 13.4524 80.5592C20.5578 82.6775 30.4569 84.0002 41.5 84.0002C52.5431 84.0002 62.4422 82.6775 69.5476 80.5592C73.1068 79.4981 75.9082 78.254 77.7974 76.9172C79.7121 75.5623 80.5 74.2559 80.5 73.0937V49.5561Z" fill="#5D87A1"/>
</svg>
