<svg width="83" height="86" viewBox="0 0 83 86" fill="none" xmlns="http://www.w3.org/2000/svg">
<path fill-rule="evenodd" clip-rule="evenodd" d="M1.5 4C0.947715 4 0.5 4.44772 0.5 5V85C0.5 85.5523 0.947715 86 1.5 86H61.5C62.0522 86 62.5 85.5523 62.5 85V80C62.5 79.4477 62.0522 79 61.5 79C60.9477 79 60.5 79.4477 60.5 80V84H2.5V6H60.5V50C60.5 50.5523 60.9477 51 61.5 51C62.0522 51 62.5 50.5523 62.5 50V5C62.5 4.44772 62.0522 4 61.5 4H1.5ZM11.5 24C10.9477 24 10.5 24.4477 10.5 25C10.5 25.5523 10.9477 26 11.5 26H31.5C32.0523 26 32.5 25.5523 32.5 25C32.5 24.4477 32.0523 24 31.5 24H11.5ZM11.5 34C10.9477 34 10.5 34.4477 10.5 35C10.5 35.5523 10.9477 36 11.5 36H51.5C52.0523 36 52.5 35.5523 52.5 35C52.5 34.4477 52.0523 34 51.5 34H11.5ZM10.5 45C10.5 44.4477 10.9477 44 11.5 44H51.5C52.0523 44 52.5 44.4477 52.5 45C52.5 45.5523 52.0523 46 51.5 46H11.5C10.9477 46 10.5 45.5523 10.5 45ZM11.5 54C10.9477 54 10.5 54.4477 10.5 55C10.5 55.5523 10.9477 56 11.5 56H41.5C42.0523 56 42.5 55.5523 42.5 55C42.5 54.4477 42.0523 54 41.5 54H11.5ZM10.5 65C10.5 64.4477 10.9477 64 11.5 64H41.5C42.0523 64 42.5 64.4477 42.5 65C42.5 65.5523 42.0523 66 41.5 66H11.5C10.9477 66 10.5 65.5523 10.5 65ZM52.5 65C52.5 60.0294 56.5294 56 61.5 56C66.4706 56 70.5 60.0294 70.5 65C70.5 67.4856 69.4937 69.7342 67.864 71.364C66.2342 72.9937 63.9856 74 61.5 74C56.5294 74 52.5 69.9706 52.5 65ZM61.5 54C55.4249 54 50.5 58.9249 50.5 65C50.5 71.0751 55.4249 76 61.5 76C64.1771 76 66.6321 75.0426 68.539 73.4532L80.7929 85.7071C81.1834 86.0976 81.8166 86.0976 82.2071 85.7071C82.5976 85.3166 82.5976 84.6834 82.2071 84.2929L69.9532 72.039C71.5426 70.1321 72.5 67.6771 72.5 65C72.5 58.9249 67.5751 54 61.5 54ZM65.0355 61.4641C65.4261 61.8546 65.4261 62.4878 65.0355 62.8783L62.9142 64.9996L65.0355 67.1209C65.4261 67.5115 65.4261 68.1446 65.0355 68.5352C64.645 68.9257 64.0118 68.9257 63.6213 68.5352L61.5 66.4138L59.3787 68.5352C58.9882 68.9257 58.355 68.9257 57.9645 68.5352C57.5739 68.1446 57.5739 67.5115 57.9645 67.1209L60.0858 64.9996L57.9645 62.8783C57.5739 62.4878 57.5739 61.8546 57.9645 61.4641C58.355 61.0736 58.9882 61.0736 59.3787 61.4641L61.5 63.5854L63.6213 61.4641C64.0118 61.0736 64.645 61.0736 65.0355 61.4641Z" fill="#19242D"/>
<path d="M6.5 80V0H66.5V80H6.5Z" fill="#D1DEE7"/>
<path fill-rule="evenodd" clip-rule="evenodd" d="M1.5 4C0.947715 4 0.5 4.44772 0.5 5V85C0.5 85.5523 0.947715 86 1.5 86H61.5C62.0522 86 62.5 85.5523 62.5 85V80C62.5 79.4477 62.0522 79 61.5 79C60.9477 79 60.5 79.4477 60.5 80V84H2.5V6H60.5V50C60.5 50.5523 60.9477 51 61.5 51C62.0522 51 62.5 50.5523 62.5 50V5C62.5 4.44772 62.0522 4 61.5 4H1.5ZM11.5 24C10.9477 24 10.5 24.4477 10.5 25C10.5 25.5523 10.9477 26 11.5 26H31.5C32.0523 26 32.5 25.5523 32.5 25C32.5 24.4477 32.0523 24 31.5 24H11.5ZM11.5 34C10.9477 34 10.5 34.4477 10.5 35C10.5 35.5523 10.9477 36 11.5 36H51.5C52.0523 36 52.5 35.5523 52.5 35C52.5 34.4477 52.0523 34 51.5 34H11.5ZM10.5 45C10.5 44.4477 10.9477 44 11.5 44H51.5C52.0523 44 52.5 44.4477 52.5 45C52.5 45.5523 52.0523 46 51.5 46H11.5C10.9477 46 10.5 45.5523 10.5 45ZM11.5 54C10.9477 54 10.5 54.4477 10.5 55C10.5 55.5523 10.9477 56 11.5 56H41.5C42.0523 56 42.5 55.5523 42.5 55C42.5 54.4477 42.0523 54 41.5 54H11.5ZM10.5 65C10.5 64.4477 10.9477 64 11.5 64H41.5C42.0523 64 42.5 64.4477 42.5 65C42.5 65.5523 42.0523 66 41.5 66H11.5C10.9477 66 10.5 65.5523 10.5 65ZM52.5 65C52.5 60.0294 56.5294 56 61.5 56C66.4706 56 70.5 60.0294 70.5 65C70.5 67.4856 69.4937 69.7342 67.864 71.364C66.2342 72.9937 63.9856 74 61.5 74C56.5294 74 52.5 69.9706 52.5 65ZM61.5 54C55.4249 54 50.5 58.9249 50.5 65C50.5 71.0751 55.4249 76 61.5 76C64.1771 76 66.6321 75.0426 68.539 73.4532L80.7929 85.7071C81.1834 86.0976 81.8166 86.0976 82.2071 85.7071C82.5976 85.3166 82.5976 84.6834 82.2071 84.2929L69.9532 72.039C71.5426 70.1321 72.5 67.6771 72.5 65C72.5 58.9249 67.5751 54 61.5 54ZM65.0355 61.4641C65.4261 61.8546 65.4261 62.4878 65.0355 62.8783L62.9142 64.9996L65.0355 67.1209C65.4261 67.5115 65.4261 68.1446 65.0355 68.5352C64.645 68.9257 64.0118 68.9257 63.6213 68.5352L61.5 66.4138L59.3787 68.5352C58.9882 68.9257 58.355 68.9257 57.9645 68.5352C57.5739 68.1446 57.5739 67.5115 57.9645 67.1209L60.0858 64.9996L57.9645 62.8783C57.5739 62.4878 57.5739 61.8546 57.9645 61.4641C58.355 61.0736 58.9882 61.0736 59.3787 61.4641L61.5 63.5854L63.6213 61.4641C64.0118 61.0736 64.645 61.0736 65.0355 61.4641Z" fill="#5D87A1"/>
</svg>
