<svg width="495" height="158" viewBox="0 0 495 158" fill="none" xmlns="http://www.w3.org/2000/svg">
<path fill-rule="evenodd" clip-rule="evenodd" d="M292.5 7C282.007 7 273.5 15.5066 273.5 26C273.5 36.4934 282.007 45 292.5 45C302.993 45 311.5 36.4934 311.5 26C311.5 15.5066 302.993 7 292.5 7ZM271.5 26C271.5 14.402 280.902 5 292.5 5C304.098 5 313.5 14.402 313.5 26C313.5 37.598 304.098 47 292.5 47C280.902 47 271.5 37.598 271.5 26ZM282.5 57C266.484 57 253.5 69.9837 253.5 86C253.5 86.5523 253.052 87 252.5 87C251.948 87 251.5 86.5523 251.5 86C251.5 68.8792 265.379 55 282.5 55H302.5C319.621 55 333.5 68.8792 333.5 86C333.5 86.5523 333.052 87 332.5 87C331.948 87 331.5 86.5523 331.5 86C331.5 69.9837 318.516 57 302.5 57H282.5Z" fill="#19242D"/>
<path d="M317.5 20C317.5 31.0457 308.546 40 297.5 40C286.454 40 277.5 31.0457 277.5 20C277.5 8.9543 286.454 0 297.5 0C308.546 0 317.5 8.9543 317.5 20Z" fill="#D1DEE7"/>
<path fill-rule="evenodd" clip-rule="evenodd" d="M292.5 7C282.007 7 273.5 15.5066 273.5 26C273.5 36.4934 282.007 45 292.5 45C302.993 45 311.5 36.4934 311.5 26C311.5 15.5066 302.993 7 292.5 7ZM271.5 26C271.5 14.402 280.902 5 292.5 5C304.098 5 313.5 14.402 313.5 26C313.5 37.598 304.098 47 292.5 47C280.902 47 271.5 37.598 271.5 26ZM282.5 57C266.484 57 253.5 69.9837 253.5 86C253.5 86.5523 253.052 87 252.5 87C251.948 87 251.5 86.5523 251.5 86C251.5 68.8792 265.379 55 282.5 55H302.5C319.621 55 333.5 68.8792 333.5 86C333.5 86.5523 333.052 87 332.5 87C331.948 87 331.5 86.5523 331.5 86C331.5 69.9837 318.516 57 302.5 57H282.5Z" fill="#5D87A1"/>
<path d="M203.947 128.066C204.467 128.116 205.032 128.163 205.641 128.207C206.249 128.246 206.949 128.265 207.741 128.265C208.504 128.265 209.072 128.149 209.442 127.917C209.813 127.679 209.999 127.275 209.999 126.705C209.999 126.5 209.974 126.317 209.924 126.157C209.88 125.991 209.797 125.839 209.675 125.7C209.559 125.556 209.398 125.421 209.193 125.293C208.994 125.166 208.737 125.036 208.421 124.903L206.521 124.115C206.05 123.927 205.635 123.716 205.275 123.484C204.921 123.246 204.622 122.98 204.379 122.687C204.135 122.388 203.95 122.056 203.823 121.691C203.701 121.32 203.64 120.905 203.64 120.446C203.64 119.832 203.734 119.314 203.922 118.894C204.116 118.467 204.401 118.124 204.777 117.864C205.159 117.599 205.632 117.408 206.197 117.292C206.761 117.175 207.417 117.117 208.164 117.117C208.562 117.117 208.95 117.131 209.326 117.159C209.708 117.186 210.059 117.222 210.38 117.267C210.707 117.305 210.997 117.35 211.252 117.399C211.507 117.444 211.708 117.485 211.858 117.524V119.325C211.371 119.281 210.818 119.234 210.198 119.184C209.578 119.129 208.936 119.101 208.272 119.101C207.901 119.101 207.572 119.12 207.284 119.159C207.002 119.198 206.764 119.264 206.57 119.358C206.382 119.452 206.238 119.583 206.139 119.749C206.039 119.915 205.989 120.125 205.989 120.379C205.989 120.573 206.014 120.745 206.064 120.894C206.114 121.043 206.2 121.182 206.321 121.309C206.449 121.436 206.615 121.561 206.819 121.683C207.03 121.799 207.292 121.921 207.608 122.048L209.318 122.745C209.871 122.972 210.344 123.204 210.737 123.442C211.13 123.68 211.451 123.951 211.7 124.256C211.949 124.555 212.129 124.901 212.24 125.293C212.356 125.686 212.414 126.151 212.414 126.688C212.414 127.264 212.312 127.773 212.107 128.215C211.908 128.658 211.617 129.034 211.235 129.344C210.854 129.649 210.383 129.878 209.824 130.033C209.271 130.194 208.64 130.274 207.932 130.274C207.517 130.274 207.104 130.26 206.695 130.232C206.291 130.21 205.912 130.18 205.558 130.141C205.203 130.102 204.885 130.061 204.603 130.017C204.321 129.972 204.102 129.928 203.947 129.884V128.066ZM222.35 129.851C221.99 129.934 221.509 130.022 220.906 130.116C220.303 130.21 219.6 130.257 218.797 130.257C217.934 130.257 217.204 130.172 216.606 130C216.014 129.823 215.532 129.546 215.162 129.17C214.791 128.794 214.522 128.309 214.356 127.717C214.196 127.12 214.116 126.4 214.116 125.559V124.97C214.116 123.365 214.478 122.167 215.203 121.375C215.934 120.584 217.013 120.188 218.44 120.188C219.237 120.188 219.91 120.313 220.458 120.562C221.011 120.806 221.456 121.149 221.794 121.591C222.137 122.028 222.383 122.554 222.533 123.168C222.682 123.777 222.757 124.444 222.757 125.169V125.916H216.349V126.09C216.349 126.439 216.371 126.754 216.415 127.037C216.459 127.319 216.567 127.56 216.739 127.759C216.91 127.958 217.165 128.113 217.502 128.224C217.846 128.329 218.31 128.381 218.897 128.381C219.401 128.381 219.943 128.362 220.524 128.323C221.105 128.279 221.714 128.226 222.35 128.166V129.851ZM220.507 124.306C220.507 124.029 220.485 123.752 220.441 123.476C220.402 123.199 220.311 122.953 220.167 122.737C220.023 122.515 219.816 122.336 219.544 122.197C219.273 122.059 218.905 121.99 218.44 121.99C217.992 121.99 217.63 122.059 217.353 122.197C217.082 122.336 216.872 122.515 216.722 122.737C216.578 122.958 216.481 123.207 216.432 123.484C216.387 123.761 216.365 124.035 216.365 124.306V124.455H220.507V124.306ZM224.907 130V116.793H227.148V130H224.907ZM237.557 129.851C237.197 129.934 236.716 130.022 236.113 130.116C235.51 130.21 234.807 130.257 234.004 130.257C233.141 130.257 232.411 130.172 231.813 130C231.221 129.823 230.739 129.546 230.369 129.17C229.998 128.794 229.729 128.309 229.563 127.717C229.403 127.12 229.323 126.4 229.323 125.559V124.97C229.323 123.365 229.685 122.167 230.41 121.375C231.141 120.584 232.22 120.188 233.647 120.188C234.444 120.188 235.117 120.313 235.665 120.562C236.218 120.806 236.663 121.149 237.001 121.591C237.344 122.028 237.59 122.554 237.74 123.168C237.889 123.777 237.964 124.444 237.964 125.169V125.916H231.556V126.09C231.556 126.439 231.578 126.754 231.622 127.037C231.666 127.319 231.774 127.56 231.946 127.759C232.117 127.958 232.372 128.113 232.709 128.224C233.053 128.329 233.517 128.381 234.104 128.381C234.608 128.381 235.15 128.362 235.731 128.323C236.312 128.279 236.921 128.226 237.557 128.166V129.851ZM235.714 124.306C235.714 124.029 235.692 123.752 235.648 123.476C235.609 123.199 235.518 122.953 235.374 122.737C235.23 122.515 235.023 122.336 234.751 122.197C234.48 122.059 234.112 121.99 233.647 121.99C233.199 121.99 232.837 122.059 232.56 122.197C232.289 122.336 232.079 122.515 231.929 122.737C231.785 122.958 231.688 123.207 231.639 123.484C231.594 123.761 231.572 124.035 231.572 124.306V124.455H235.714V124.306ZM246.655 129.9C246.544 129.928 246.395 129.961 246.207 130C246.024 130.044 245.808 130.086 245.559 130.125C245.31 130.163 245.028 130.194 244.712 130.216C244.403 130.243 244.065 130.257 243.7 130.257C242.322 130.257 241.304 129.878 240.645 129.12C239.992 128.356 239.666 127.255 239.666 125.816V124.613C239.666 123.152 239.992 122.051 240.645 121.309C241.304 120.562 242.322 120.188 243.7 120.188C244.065 120.188 244.403 120.202 244.712 120.23C245.028 120.252 245.31 120.283 245.559 120.321C245.808 120.354 246.024 120.393 246.207 120.438C246.395 120.476 246.544 120.512 246.655 120.545V122.247C246.052 122.197 245.54 122.161 245.119 122.139C244.699 122.111 244.355 122.098 244.09 122.098C243.741 122.098 243.431 122.131 243.16 122.197C242.889 122.264 242.662 122.391 242.479 122.579C242.297 122.762 242.156 123.016 242.056 123.343C241.962 123.669 241.915 124.093 241.915 124.613V125.816C241.915 126.331 241.962 126.754 242.056 127.086C242.156 127.413 242.297 127.67 242.479 127.858C242.662 128.041 242.889 128.168 243.16 128.24C243.431 128.312 243.741 128.348 244.09 128.348C244.355 128.348 244.699 128.337 245.119 128.315C245.54 128.287 246.052 128.249 246.655 128.199V129.9ZM255.188 129.9C255.077 129.928 254.928 129.961 254.74 130C254.557 130.044 254.341 130.086 254.092 130.125C253.843 130.163 253.561 130.194 253.246 130.216C252.936 130.243 252.598 130.257 252.233 130.257C250.855 130.257 249.837 129.878 249.178 129.12C248.525 128.356 248.199 127.255 248.199 125.816V124.613C248.199 123.152 248.525 122.051 249.178 121.309C249.837 120.562 250.855 120.188 252.233 120.188C252.598 120.188 252.936 120.202 253.246 120.23C253.561 120.252 253.843 120.283 254.092 120.321C254.341 120.354 254.557 120.393 254.74 120.438C254.928 120.476 255.077 120.512 255.188 120.545V122.247C254.585 122.197 254.073 122.161 253.652 122.139C253.232 122.111 252.889 122.098 252.623 122.098C252.274 122.098 251.965 122.131 251.693 122.197C251.422 122.264 251.195 122.391 251.013 122.579C250.83 122.762 250.689 123.016 250.589 123.343C250.495 123.669 250.448 124.093 250.448 124.613V125.816C250.448 126.331 250.495 126.754 250.589 127.086C250.689 127.413 250.83 127.67 251.013 127.858C251.195 128.041 251.422 128.168 251.693 128.24C251.965 128.312 252.274 128.348 252.623 128.348C252.889 128.348 253.232 128.337 253.652 128.315C254.073 128.287 254.585 128.249 255.188 128.199V129.9ZM257.18 130V120.429H259.438V130H257.18ZM257.164 118.952V116.793H259.471V118.952H257.164ZM270.254 125.8C270.254 127.316 269.883 128.439 269.142 129.17C268.4 129.895 267.332 130.257 265.938 130.257C264.543 130.257 263.472 129.895 262.725 129.17C261.984 128.439 261.613 127.316 261.613 125.8V124.629C261.613 123.124 261.984 122.009 262.725 121.284C263.472 120.554 264.543 120.188 265.938 120.188C267.332 120.188 268.4 120.554 269.142 121.284C269.883 122.009 270.254 123.124 270.254 124.629V125.8ZM268.029 124.629C268.029 124.17 267.988 123.783 267.905 123.467C267.827 123.146 267.703 122.886 267.531 122.687C267.36 122.488 267.141 122.344 266.875 122.255C266.615 122.161 266.303 122.114 265.938 122.114C265.578 122.114 265.265 122.161 265 122.255C264.739 122.344 264.524 122.488 264.352 122.687C264.181 122.886 264.053 123.146 263.97 123.467C263.887 123.783 263.846 124.17 263.846 124.629V125.8C263.846 126.259 263.884 126.649 263.962 126.97C264.045 127.291 264.172 127.554 264.344 127.759C264.515 127.958 264.731 128.105 264.991 128.199C265.257 128.287 265.572 128.332 265.938 128.332C266.303 128.332 266.615 128.287 266.875 128.199C267.141 128.105 267.36 127.958 267.531 127.759C267.703 127.554 267.827 127.291 267.905 126.97C267.988 126.649 268.029 126.259 268.029 125.8V124.629ZM278.455 130V123.932C278.455 123.589 278.436 123.301 278.397 123.069C278.364 122.831 278.297 122.64 278.198 122.496C278.098 122.347 277.96 122.242 277.783 122.181C277.611 122.114 277.387 122.081 277.11 122.081C276.784 122.081 276.41 122.136 275.99 122.247C275.575 122.358 275.11 122.515 274.595 122.72V130H272.371V120.429H274.512V121.193C275.032 120.894 275.55 120.653 276.064 120.471C276.585 120.283 277.113 120.188 277.65 120.188C278.325 120.188 278.865 120.283 279.269 120.471C279.673 120.653 279.98 120.911 280.19 121.243C280.406 121.575 280.547 121.97 280.613 122.43C280.68 122.889 280.713 123.39 280.713 123.932V130H278.455ZM288.516 130V129.369C288.366 129.469 288.186 129.571 287.976 129.676C287.771 129.781 287.542 129.878 287.287 129.967C287.033 130.05 286.753 130.119 286.449 130.174C286.144 130.23 285.823 130.257 285.486 130.257C284.595 130.257 283.903 130.033 283.411 129.585C282.924 129.131 282.68 128.442 282.68 127.518V127.161C282.68 126.525 282.788 126.016 283.004 125.634C283.225 125.252 283.535 124.961 283.934 124.762C284.332 124.557 284.808 124.425 285.361 124.364C285.915 124.303 286.529 124.272 287.204 124.272H288.341V123.675C288.341 123.337 288.316 123.063 288.267 122.853C288.222 122.637 288.128 122.471 287.984 122.355C287.84 122.233 287.639 122.153 287.378 122.114C287.118 122.07 286.778 122.048 286.357 122.048C285.876 122.048 285.386 122.064 284.888 122.098C284.39 122.125 283.875 122.17 283.344 122.23V120.72C283.444 120.675 283.604 120.623 283.826 120.562C284.047 120.501 284.307 120.443 284.606 120.388C284.91 120.332 285.242 120.285 285.602 120.247C285.967 120.208 286.344 120.188 286.731 120.188C287.495 120.188 288.125 120.255 288.624 120.388C289.122 120.521 289.514 120.728 289.802 121.01C290.096 121.292 290.3 121.655 290.417 122.098C290.533 122.535 290.591 123.061 290.591 123.675V130H288.516ZM288.391 125.65H287.204C286.789 125.65 286.432 125.667 286.133 125.7C285.84 125.733 285.597 125.8 285.403 125.899C285.215 125.999 285.076 126.146 284.988 126.339C284.899 126.528 284.855 126.779 284.855 127.095V127.501C284.855 127.723 284.888 127.905 284.955 128.049C285.021 128.193 285.112 128.309 285.229 128.398C285.345 128.481 285.486 128.539 285.652 128.572C285.818 128.605 286 128.622 286.2 128.622C286.432 128.622 286.659 128.603 286.88 128.564C287.107 128.52 287.318 128.47 287.511 128.415C287.705 128.354 287.879 128.29 288.034 128.224C288.189 128.152 288.308 128.091 288.391 128.041V125.65ZM302.444 130V129.236C301.874 129.546 301.318 129.795 300.776 129.983C300.234 130.166 299.686 130.257 299.132 130.257C298.712 130.257 298.349 130.21 298.045 130.116C297.741 130.022 297.48 129.892 297.265 129.726C297.054 129.56 296.883 129.361 296.75 129.128C296.617 128.896 296.512 128.641 296.435 128.365C296.363 128.088 296.313 127.795 296.285 127.485C296.263 127.169 296.252 126.846 296.252 126.514V120.429H298.485V126.514C298.485 126.857 298.504 127.147 298.543 127.385C298.582 127.618 298.651 127.806 298.75 127.95C298.85 128.094 298.988 128.199 299.166 128.265C299.348 128.332 299.581 128.365 299.863 128.365C300.184 128.365 300.552 128.307 300.967 128.19C301.382 128.074 301.847 127.919 302.361 127.726V120.429H304.603V130H302.444ZM313.169 130V123.932C313.169 123.589 313.15 123.301 313.111 123.069C313.078 122.831 313.011 122.64 312.912 122.496C312.812 122.347 312.674 122.242 312.497 122.181C312.325 122.114 312.101 122.081 311.824 122.081C311.498 122.081 311.124 122.136 310.704 122.247C310.289 122.358 309.824 122.515 309.309 122.72V130H307.084V120.429H309.226V121.193C309.746 120.894 310.264 120.653 310.778 120.471C311.299 120.283 311.827 120.188 312.364 120.188C313.039 120.188 313.578 120.283 313.982 120.471C314.386 120.653 314.694 120.911 314.904 121.243C315.12 121.575 315.261 121.97 315.327 122.43C315.394 122.889 315.427 123.39 315.427 123.932V130H313.169ZM327.347 130V129.236C326.777 129.546 326.221 129.795 325.678 129.983C325.136 130.166 324.588 130.257 324.035 130.257C323.614 130.257 323.252 130.21 322.947 130.116C322.643 130.022 322.383 129.892 322.167 129.726C321.957 129.56 321.785 129.361 321.652 129.128C321.52 128.896 321.414 128.641 321.337 128.365C321.265 128.088 321.215 127.795 321.188 127.485C321.165 127.169 321.154 126.846 321.154 126.514V120.429H323.387V126.514C323.387 126.857 323.407 127.147 323.445 127.385C323.484 127.618 323.553 127.806 323.653 127.95C323.752 128.094 323.891 128.199 324.068 128.265C324.25 128.332 324.483 128.365 324.765 128.365C325.086 128.365 325.454 128.307 325.869 128.19C326.284 128.074 326.749 127.919 327.264 127.726V120.429H329.505V130H327.347ZM331.663 128.265C331.785 128.276 331.959 128.293 332.186 128.315C332.418 128.337 332.679 128.362 332.966 128.39C333.254 128.417 333.558 128.442 333.879 128.464C334.2 128.481 334.516 128.489 334.826 128.489C335.174 128.489 335.462 128.47 335.689 128.431C335.916 128.387 336.096 128.323 336.229 128.24C336.361 128.157 336.455 128.055 336.511 127.933C336.566 127.806 336.594 127.656 336.594 127.485C336.594 127.319 336.572 127.181 336.527 127.07C336.483 126.954 336.397 126.848 336.27 126.754C336.148 126.655 335.977 126.555 335.755 126.456C335.534 126.356 335.246 126.234 334.892 126.09L334.162 125.8C333.713 125.623 333.323 125.437 332.991 125.244C332.659 125.044 332.382 124.826 332.161 124.588C331.945 124.344 331.785 124.079 331.68 123.791C331.575 123.498 331.522 123.166 331.522 122.795C331.522 122.313 331.602 121.907 331.763 121.575C331.923 121.243 332.161 120.974 332.477 120.77C332.798 120.565 333.196 120.418 333.672 120.33C334.153 120.236 334.712 120.188 335.349 120.188C335.62 120.188 335.905 120.202 336.204 120.23C336.508 120.252 336.799 120.283 337.075 120.321C337.352 120.36 337.601 120.402 337.822 120.446C338.049 120.485 338.221 120.523 338.337 120.562V122.131C337.8 122.076 337.277 122.034 336.768 122.006C336.259 121.973 335.797 121.957 335.382 121.957C335.094 121.957 334.845 121.968 334.635 121.99C334.43 122.006 334.258 122.042 334.12 122.098C333.987 122.153 333.888 122.233 333.821 122.338C333.76 122.438 333.73 122.574 333.73 122.745C333.73 122.895 333.752 123.022 333.796 123.127C333.846 123.232 333.929 123.329 334.045 123.417C334.162 123.506 334.317 123.595 334.51 123.683C334.709 123.766 334.956 123.866 335.249 123.982L336.013 124.289C336.527 124.499 336.962 124.701 337.316 124.895C337.67 125.089 337.955 125.302 338.171 125.534C338.392 125.767 338.55 126.029 338.644 126.323C338.744 126.611 338.796 126.954 338.802 127.352C338.802 127.8 338.724 128.204 338.569 128.564C338.414 128.918 338.176 129.22 337.855 129.469C337.54 129.718 337.139 129.909 336.652 130.042C336.165 130.174 335.589 130.241 334.925 130.241C334.593 130.241 334.256 130.227 333.913 130.199C333.575 130.172 333.257 130.138 332.958 130.1C332.659 130.066 332.394 130.028 332.161 129.983C331.934 129.939 331.768 129.9 331.663 129.867V128.265ZM346.854 130V129.236C346.284 129.546 345.727 129.795 345.185 129.983C344.643 130.166 344.095 130.257 343.542 130.257C343.121 130.257 342.758 130.21 342.454 130.116C342.15 130.022 341.89 129.892 341.674 129.726C341.464 129.56 341.292 129.361 341.159 129.128C341.026 128.896 340.921 128.641 340.844 128.365C340.772 128.088 340.722 127.795 340.694 127.485C340.672 127.169 340.661 126.846 340.661 126.514V120.429H342.894V126.514C342.894 126.857 342.913 127.147 342.952 127.385C342.991 127.618 343.06 127.806 343.16 127.95C343.259 128.094 343.398 128.199 343.575 128.265C343.757 128.332 343.99 128.365 344.272 128.365C344.593 128.365 344.961 128.307 345.376 128.19C345.791 128.074 346.256 127.919 346.771 127.726V120.429H349.012V130H346.854ZM356.864 130V129.369C356.715 129.469 356.535 129.571 356.325 129.676C356.12 129.781 355.89 129.878 355.636 129.967C355.381 130.05 355.102 130.119 354.797 130.174C354.493 130.23 354.172 130.257 353.834 130.257C352.944 130.257 352.252 130.033 351.759 129.585C351.272 129.131 351.029 128.442 351.029 127.518V127.161C351.029 126.525 351.137 126.016 351.353 125.634C351.574 125.252 351.884 124.961 352.282 124.762C352.681 124.557 353.157 124.425 353.71 124.364C354.263 124.303 354.878 124.272 355.553 124.272H356.69V123.675C356.69 123.337 356.665 123.063 356.615 122.853C356.571 122.637 356.477 122.471 356.333 122.355C356.189 122.233 355.987 122.153 355.727 122.114C355.467 122.07 355.127 122.048 354.706 122.048C354.225 122.048 353.735 122.064 353.237 122.098C352.739 122.125 352.224 122.17 351.693 122.23V120.72C351.792 120.675 351.953 120.623 352.174 120.562C352.396 120.501 352.656 120.443 352.955 120.388C353.259 120.332 353.591 120.285 353.951 120.247C354.316 120.208 354.692 120.188 355.08 120.188C355.843 120.188 356.474 120.255 356.972 120.388C357.47 120.521 357.863 120.728 358.151 121.01C358.444 121.292 358.649 121.655 358.765 122.098C358.881 122.535 358.939 123.061 358.939 123.675V130H356.864ZM356.74 125.65H355.553C355.138 125.65 354.781 125.667 354.482 125.7C354.189 125.733 353.945 125.8 353.751 125.899C353.563 125.999 353.425 126.146 353.336 126.339C353.248 126.528 353.204 126.779 353.204 127.095V127.501C353.204 127.723 353.237 127.905 353.303 128.049C353.37 128.193 353.461 128.309 353.577 128.398C353.693 128.481 353.834 128.539 354 128.572C354.167 128.605 354.349 128.622 354.548 128.622C354.781 128.622 355.008 128.603 355.229 128.564C355.456 128.52 355.666 128.47 355.86 128.415C356.054 128.354 356.228 128.29 356.383 128.224C356.538 128.152 356.657 128.091 356.74 128.041V125.65ZM361.305 130V120.429H363.43V121.209C363.652 121.01 363.889 120.847 364.144 120.72C364.404 120.587 364.673 120.482 364.949 120.404C365.226 120.321 365.511 120.266 365.804 120.238C366.097 120.205 366.394 120.188 366.692 120.188V122.247C366.399 122.247 366.103 122.261 365.804 122.289C365.511 122.316 365.226 122.358 364.949 122.413C364.673 122.463 364.412 122.524 364.169 122.596C363.925 122.668 363.712 122.745 363.53 122.828V130H361.305ZM368.278 130V120.429H370.536V130H368.278ZM368.261 118.952V116.793H370.569V118.952H368.261ZM381.352 125.8C381.352 127.316 380.981 128.439 380.239 129.17C379.498 129.895 378.43 130.257 377.035 130.257C375.641 130.257 374.57 129.895 373.823 129.17C373.081 128.439 372.71 127.316 372.71 125.8V124.629C372.71 123.124 373.081 122.009 373.823 121.284C374.57 120.554 375.641 120.188 377.035 120.188C378.43 120.188 379.498 120.554 380.239 121.284C380.981 122.009 381.352 123.124 381.352 124.629V125.8ZM379.127 124.629C379.127 124.17 379.085 123.783 379.002 123.467C378.925 123.146 378.8 122.886 378.629 122.687C378.457 122.488 378.239 122.344 377.973 122.255C377.713 122.161 377.4 122.114 377.035 122.114C376.675 122.114 376.363 122.161 376.097 122.255C375.837 122.344 375.621 122.488 375.45 122.687C375.278 122.886 375.151 123.146 375.068 123.467C374.985 123.783 374.943 124.17 374.943 124.629V125.8C374.943 126.259 374.982 126.649 375.06 126.97C375.143 127.291 375.27 127.554 375.441 127.759C375.613 127.958 375.829 128.105 376.089 128.199C376.354 128.287 376.67 128.332 377.035 128.332C377.4 128.332 377.713 128.287 377.973 128.199C378.239 128.105 378.457 127.958 378.629 127.759C378.8 127.554 378.925 127.291 379.002 126.97C379.085 126.649 379.127 126.259 379.127 125.8V124.629Z" fill="#051724"/>
<path d="M138.41 150.512C138.188 150.406 137.986 150.285 137.807 150.148C137.627 150.012 137.475 149.855 137.35 149.68C137.225 149.504 137.127 149.309 137.057 149.094C136.99 148.875 136.957 148.631 136.957 148.361C136.957 147.908 137.043 147.527 137.215 147.219C137.391 146.91 137.627 146.662 137.924 146.475C138.221 146.283 138.564 146.146 138.955 146.064C139.35 145.982 139.764 145.941 140.197 145.941C140.494 145.941 140.777 145.951 141.047 145.971C141.32 145.986 141.566 146.006 141.785 146.029C142.008 146.053 142.199 146.078 142.359 146.105C142.523 146.133 142.646 146.158 142.729 146.182L142.57 147.055C142.352 147.031 142.146 147.01 141.955 146.99C141.768 146.971 141.58 146.955 141.393 146.943C141.205 146.932 141.014 146.922 140.818 146.914C140.623 146.906 140.412 146.902 140.186 146.902C139.893 146.902 139.619 146.922 139.365 146.961C139.111 147 138.891 147.072 138.703 147.178C138.516 147.283 138.367 147.432 138.258 147.623C138.148 147.811 138.094 148.053 138.094 148.35C138.094 148.49 138.109 148.619 138.141 148.736C138.176 148.85 138.23 148.955 138.305 149.053C138.383 149.15 138.484 149.242 138.609 149.328C138.734 149.414 138.887 149.5 139.066 149.586L140.484 150.26C140.723 150.373 140.936 150.494 141.123 150.623C141.311 150.748 141.467 150.895 141.592 151.062C141.721 151.23 141.818 151.428 141.885 151.654C141.951 151.877 141.984 152.141 141.984 152.445C141.984 152.895 141.902 153.289 141.738 153.629C141.574 153.969 141.34 154.254 141.035 154.484C140.734 154.711 140.369 154.883 139.939 155C139.51 155.113 139.031 155.17 138.504 155.17C138.238 155.17 137.973 155.16 137.707 155.141C137.445 155.125 137.201 155.104 136.975 155.076C136.752 155.049 136.555 155.021 136.383 154.994C136.215 154.963 136.09 154.938 136.008 154.918L136.154 154.062C136.447 154.113 136.789 154.15 137.18 154.174C137.574 154.197 138.031 154.209 138.551 154.209C138.887 154.209 139.193 154.178 139.471 154.115C139.748 154.053 139.984 153.951 140.18 153.811C140.379 153.67 140.533 153.488 140.643 153.266C140.752 153.043 140.807 152.773 140.807 152.457C140.807 152.316 140.789 152.188 140.754 152.07C140.719 151.953 140.662 151.846 140.584 151.748C140.506 151.646 140.404 151.551 140.279 151.461C140.154 151.371 140.002 151.283 139.822 151.197L138.41 150.512ZM148.295 154.906C148.049 154.965 147.725 155.023 147.322 155.082C146.92 155.141 146.453 155.17 145.922 155.17C145.457 155.17 145.059 155.119 144.727 155.018C144.398 154.92 144.131 154.775 143.924 154.584C143.717 154.393 143.564 154.158 143.467 153.881C143.373 153.6 143.326 153.281 143.326 152.926C143.326 152.742 143.34 152.553 143.367 152.357C143.395 152.162 143.426 151.955 143.461 151.736L143.543 151.232C143.629 150.713 143.77 150.266 143.965 149.891C144.164 149.512 144.404 149.199 144.686 148.953C144.967 148.707 145.283 148.525 145.635 148.408C145.99 148.291 146.369 148.232 146.771 148.232C147.154 148.232 147.498 148.277 147.803 148.367C148.107 148.453 148.365 148.588 148.576 148.771C148.787 148.955 148.949 149.188 149.062 149.469C149.176 149.75 149.232 150.086 149.232 150.477C149.232 150.742 149.215 151.006 149.18 151.268C149.145 151.525 149.094 151.801 149.027 152.094H144.492L144.434 152.334C144.426 152.365 144.42 152.406 144.416 152.457C144.412 152.504 144.406 152.557 144.398 152.615C144.395 152.674 144.391 152.734 144.387 152.797C144.387 152.855 144.387 152.914 144.387 152.973C144.387 153.16 144.412 153.332 144.463 153.488C144.514 153.645 144.604 153.777 144.732 153.887C144.861 153.996 145.035 154.082 145.254 154.145C145.477 154.203 145.758 154.232 146.098 154.232C146.285 154.232 146.48 154.229 146.684 154.221C146.891 154.209 147.098 154.195 147.305 154.18C147.512 154.16 147.713 154.139 147.908 154.115C148.107 154.092 148.289 154.066 148.453 154.039L148.295 154.906ZM148.078 151.209C148.105 151.072 148.127 150.941 148.143 150.816C148.158 150.691 148.166 150.578 148.166 150.477C148.166 150.312 148.145 150.152 148.102 149.996C148.062 149.836 147.988 149.695 147.879 149.574C147.773 149.453 147.627 149.355 147.439 149.281C147.256 149.207 147.018 149.17 146.725 149.17C146.479 149.17 146.26 149.199 146.068 149.258C145.881 149.312 145.715 149.389 145.57 149.486C145.426 149.584 145.303 149.697 145.201 149.826C145.104 149.955 145.02 150.092 144.949 150.236C144.879 150.377 144.822 150.521 144.779 150.67C144.74 150.814 144.709 150.953 144.686 151.086L144.662 151.209H148.078ZM150.193 155L151.828 145.713H152.895L151.26 155H150.193ZM158.303 154.906C158.057 154.965 157.732 155.023 157.33 155.082C156.928 155.141 156.461 155.17 155.93 155.17C155.465 155.17 155.066 155.119 154.734 155.018C154.406 154.92 154.139 154.775 153.932 154.584C153.725 154.393 153.572 154.158 153.475 153.881C153.381 153.6 153.334 153.281 153.334 152.926C153.334 152.742 153.348 152.553 153.375 152.357C153.402 152.162 153.434 151.955 153.469 151.736L153.551 151.232C153.637 150.713 153.777 150.266 153.973 149.891C154.172 149.512 154.412 149.199 154.693 148.953C154.975 148.707 155.291 148.525 155.643 148.408C155.998 148.291 156.377 148.232 156.779 148.232C157.162 148.232 157.506 148.277 157.811 148.367C158.115 148.453 158.373 148.588 158.584 148.771C158.795 148.955 158.957 149.188 159.07 149.469C159.184 149.75 159.24 150.086 159.24 150.477C159.24 150.742 159.223 151.006 159.188 151.268C159.152 151.525 159.102 151.801 159.035 152.094H154.5L154.441 152.334C154.434 152.365 154.428 152.406 154.424 152.457C154.42 152.504 154.414 152.557 154.406 152.615C154.402 152.674 154.398 152.734 154.395 152.797C154.395 152.855 154.395 152.914 154.395 152.973C154.395 153.16 154.42 153.332 154.471 153.488C154.521 153.645 154.611 153.777 154.74 153.887C154.869 153.996 155.043 154.082 155.262 154.145C155.484 154.203 155.766 154.232 156.105 154.232C156.293 154.232 156.488 154.229 156.691 154.221C156.898 154.209 157.105 154.195 157.312 154.18C157.52 154.16 157.721 154.139 157.916 154.115C158.115 154.092 158.297 154.066 158.461 154.039L158.303 154.906ZM158.086 151.209C158.113 151.072 158.135 150.941 158.15 150.816C158.166 150.691 158.174 150.578 158.174 150.477C158.174 150.312 158.152 150.152 158.109 149.996C158.07 149.836 157.996 149.695 157.887 149.574C157.781 149.453 157.635 149.355 157.447 149.281C157.264 149.207 157.025 149.17 156.732 149.17C156.486 149.17 156.268 149.199 156.076 149.258C155.889 149.312 155.723 149.389 155.578 149.486C155.434 149.584 155.311 149.697 155.209 149.826C155.111 149.955 155.027 150.092 154.957 150.236C154.887 150.377 154.83 150.521 154.787 150.67C154.748 150.814 154.717 150.953 154.693 151.086L154.67 151.209H158.086ZM164.391 154.941C164.332 154.961 164.244 154.982 164.127 155.006C164.01 155.033 163.871 155.059 163.711 155.082C163.551 155.105 163.373 155.125 163.178 155.141C162.982 155.16 162.777 155.17 162.562 155.17C162.152 155.17 161.803 155.115 161.514 155.006C161.229 154.896 160.996 154.744 160.816 154.549C160.641 154.35 160.512 154.113 160.43 153.84C160.348 153.566 160.307 153.266 160.307 152.938C160.307 152.645 160.336 152.336 160.395 152.012L160.559 151.016C160.723 150.055 161.062 149.352 161.578 148.906C162.094 148.457 162.799 148.232 163.693 148.232C163.932 148.232 164.152 148.242 164.355 148.262C164.559 148.277 164.738 148.297 164.895 148.32C165.051 148.344 165.184 148.369 165.293 148.396C165.402 148.424 165.484 148.445 165.539 148.461L165.398 149.275C165 149.232 164.658 149.203 164.373 149.188C164.088 149.168 163.857 149.158 163.682 149.158C163.416 149.158 163.172 149.188 162.949 149.246C162.727 149.305 162.527 149.41 162.352 149.562C162.176 149.715 162.025 149.924 161.9 150.189C161.775 150.451 161.678 150.787 161.607 151.197L161.438 152.193C161.391 152.471 161.367 152.719 161.367 152.938C161.367 153.195 161.396 153.408 161.455 153.576C161.514 153.744 161.602 153.879 161.719 153.98C161.84 154.078 161.988 154.146 162.164 154.186C162.344 154.225 162.553 154.244 162.791 154.244C162.967 154.244 163.197 154.234 163.482 154.215C163.771 154.195 164.121 154.164 164.531 154.121L164.391 154.941ZM170.121 154.941C170.062 154.961 169.975 154.982 169.857 155.006C169.74 155.033 169.602 155.059 169.441 155.082C169.281 155.105 169.104 155.125 168.908 155.141C168.713 155.16 168.508 155.17 168.293 155.17C167.883 155.17 167.533 155.115 167.244 155.006C166.959 154.896 166.727 154.744 166.547 154.549C166.371 154.35 166.242 154.113 166.16 153.84C166.078 153.566 166.037 153.266 166.037 152.938C166.037 152.645 166.066 152.336 166.125 152.012L166.289 151.016C166.453 150.055 166.793 149.352 167.309 148.906C167.824 148.457 168.529 148.232 169.424 148.232C169.662 148.232 169.883 148.242 170.086 148.262C170.289 148.277 170.469 148.297 170.625 148.32C170.781 148.344 170.914 148.369 171.023 148.396C171.133 148.424 171.215 148.445 171.27 148.461L171.129 149.275C170.73 149.232 170.389 149.203 170.104 149.188C169.818 149.168 169.588 149.158 169.412 149.158C169.146 149.158 168.902 149.188 168.68 149.246C168.457 149.305 168.258 149.41 168.082 149.562C167.906 149.715 167.756 149.924 167.631 150.189C167.506 150.451 167.408 150.787 167.338 151.197L167.168 152.193C167.121 152.471 167.098 152.719 167.098 152.938C167.098 153.195 167.127 153.408 167.186 153.576C167.244 153.744 167.332 153.879 167.449 153.98C167.57 154.078 167.719 154.146 167.895 154.186C168.074 154.225 168.283 154.244 168.521 154.244C168.697 154.244 168.928 154.234 169.213 154.215C169.502 154.195 169.852 154.164 170.262 154.121L170.121 154.941ZM171.662 155L172.816 148.402H173.895L172.74 155H171.662ZM173.027 147.178L173.297 145.713H174.387L174.123 147.178H173.027ZM180.48 152.346C180.312 153.307 179.957 154.018 179.414 154.479C178.871 154.939 178.15 155.17 177.252 155.17C176.838 155.17 176.479 155.117 176.174 155.012C175.873 154.91 175.623 154.766 175.424 154.578C175.225 154.387 175.076 154.156 174.979 153.887C174.885 153.613 174.838 153.309 174.838 152.973C174.838 152.789 174.844 152.615 174.855 152.451C174.871 152.287 174.891 152.133 174.914 151.988L175.078 151.027C175.164 150.543 175.297 150.125 175.477 149.773C175.66 149.418 175.887 149.127 176.156 148.9C176.43 148.674 176.746 148.506 177.105 148.396C177.465 148.287 177.865 148.232 178.307 148.232C179.111 148.232 179.719 148.416 180.129 148.783C180.539 149.146 180.744 149.699 180.744 150.441C180.744 150.523 180.74 150.611 180.732 150.705C180.725 150.795 180.715 150.885 180.703 150.975C180.695 151.061 180.686 151.141 180.674 151.215C180.662 151.289 180.654 151.348 180.65 151.391L180.48 152.346ZM179.59 151.221C179.621 151.045 179.641 150.902 179.648 150.793C179.66 150.68 179.666 150.562 179.666 150.441C179.666 150.246 179.643 150.07 179.596 149.914C179.553 149.758 179.475 149.627 179.361 149.521C179.252 149.412 179.104 149.328 178.916 149.27C178.732 149.211 178.498 149.182 178.213 149.182C177.889 149.182 177.609 149.221 177.375 149.299C177.141 149.377 176.941 149.5 176.777 149.668C176.613 149.832 176.479 150.043 176.373 150.301C176.271 150.559 176.189 150.865 176.127 151.221L175.957 152.182C175.934 152.318 175.916 152.447 175.904 152.568C175.893 152.689 175.887 152.824 175.887 152.973C175.887 153.188 175.912 153.373 175.963 153.529C176.014 153.686 176.096 153.816 176.209 153.922C176.326 154.023 176.475 154.1 176.654 154.15C176.838 154.197 177.061 154.221 177.322 154.221C177.658 154.221 177.945 154.182 178.184 154.104C178.422 154.025 178.621 153.904 178.781 153.74C178.945 153.572 179.078 153.359 179.18 153.102C179.281 152.844 179.363 152.537 179.426 152.182L179.59 151.221ZM185.871 155L186.604 150.822C186.627 150.674 186.646 150.537 186.662 150.412C186.678 150.283 186.686 150.164 186.686 150.055C186.686 149.75 186.615 149.527 186.475 149.387C186.334 149.242 186.096 149.17 185.76 149.17C185.471 149.17 185.15 149.217 184.799 149.311C184.447 149.4 184.053 149.561 183.615 149.791L182.689 155H181.611L182.771 148.402H183.844L183.768 148.883C184.182 148.648 184.574 148.482 184.945 148.385C185.316 148.283 185.668 148.232 186 148.232C186.332 148.232 186.609 148.275 186.832 148.361C187.059 148.443 187.24 148.561 187.377 148.713C187.514 148.865 187.609 149.049 187.664 149.264C187.723 149.475 187.752 149.707 187.752 149.961C187.752 150.117 187.742 150.283 187.723 150.459C187.703 150.635 187.678 150.812 187.646 150.992L186.949 155H185.871ZM192.814 155L192.861 154.666C192.619 154.799 192.332 154.916 192 155.018C191.672 155.119 191.314 155.17 190.928 155.17C190.275 155.17 189.775 154.988 189.428 154.625C189.084 154.258 188.912 153.723 188.912 153.02C188.912 152.887 188.918 152.748 188.93 152.604C188.945 152.455 188.969 152.303 189 152.146L189.199 151.004C189.27 150.609 189.361 150.268 189.475 149.979C189.592 149.689 189.727 149.443 189.879 149.24C190.035 149.033 190.209 148.865 190.4 148.736C190.592 148.604 190.799 148.5 191.021 148.426C191.244 148.352 191.48 148.301 191.73 148.273C191.984 148.246 192.25 148.232 192.527 148.232C192.676 148.232 192.85 148.236 193.049 148.244C193.248 148.248 193.459 148.258 193.682 148.273C193.904 148.285 194.129 148.303 194.355 148.326C194.586 148.346 194.805 148.371 195.012 148.402L193.857 155H192.814ZM193.787 149.217C193.662 149.205 193.529 149.195 193.389 149.188C193.248 149.18 193.113 149.174 192.984 149.17C192.855 149.162 192.736 149.156 192.627 149.152C192.521 149.148 192.439 149.146 192.381 149.146C192.104 149.146 191.85 149.172 191.619 149.223C191.393 149.27 191.189 149.367 191.01 149.516C190.834 149.664 190.682 149.873 190.553 150.143C190.428 150.412 190.326 150.768 190.248 151.209L190.043 152.346C190.02 152.498 190.004 152.621 189.996 152.715C189.988 152.805 189.984 152.898 189.984 152.996C189.984 153.422 190.09 153.736 190.301 153.939C190.516 154.143 190.85 154.244 191.303 154.244C191.596 154.244 191.881 154.207 192.158 154.133C192.436 154.055 192.711 153.955 192.984 153.834L193.787 149.217ZM202.219 155L202.301 154.484C201.863 154.707 201.453 154.877 201.07 154.994C200.691 155.111 200.322 155.17 199.963 155.17C199.643 155.17 199.377 155.127 199.166 155.041C198.955 154.955 198.785 154.836 198.656 154.684C198.531 154.531 198.443 154.352 198.393 154.145C198.342 153.934 198.316 153.707 198.316 153.465C198.316 153.309 198.324 153.148 198.34 152.984C198.355 152.816 198.379 152.645 198.41 152.469L199.131 148.402H200.197L199.471 152.609C199.439 152.793 199.414 152.955 199.395 153.096C199.379 153.236 199.371 153.363 199.371 153.477C199.371 153.621 199.387 153.742 199.418 153.84C199.449 153.938 199.498 154.018 199.564 154.08C199.635 154.139 199.723 154.182 199.828 154.209C199.934 154.232 200.062 154.244 200.215 154.244C200.508 154.244 200.836 154.195 201.199 154.098C201.566 153.996 201.98 153.85 202.441 153.658L203.379 148.402H204.445L203.285 155H202.219ZM209.426 155L210.158 150.822C210.182 150.674 210.201 150.537 210.217 150.412C210.232 150.283 210.24 150.164 210.24 150.055C210.24 149.75 210.17 149.527 210.029 149.387C209.889 149.242 209.65 149.17 209.314 149.17C209.025 149.17 208.705 149.217 208.354 149.311C208.002 149.4 207.607 149.561 207.17 149.791L206.244 155H205.166L206.326 148.402H207.398L207.322 148.883C207.736 148.648 208.129 148.482 208.5 148.385C208.871 148.283 209.223 148.232 209.555 148.232C209.887 148.232 210.164 148.275 210.387 148.361C210.613 148.443 210.795 148.561 210.932 148.713C211.068 148.865 211.164 149.049 211.219 149.264C211.277 149.475 211.307 149.707 211.307 149.961C211.307 150.117 211.297 150.283 211.277 150.459C211.258 150.635 211.232 150.812 211.201 150.992L210.504 155H209.426ZM218.836 155L218.918 154.484C218.48 154.707 218.07 154.877 217.688 154.994C217.309 155.111 216.939 155.17 216.58 155.17C216.26 155.17 215.994 155.127 215.783 155.041C215.572 154.955 215.402 154.836 215.273 154.684C215.148 154.531 215.061 154.352 215.01 154.145C214.959 153.934 214.934 153.707 214.934 153.465C214.934 153.309 214.941 153.148 214.957 152.984C214.973 152.816 214.996 152.645 215.027 152.469L215.748 148.402H216.814L216.088 152.609C216.057 152.793 216.031 152.955 216.012 153.096C215.996 153.236 215.988 153.363 215.988 153.477C215.988 153.621 216.004 153.742 216.035 153.84C216.066 153.938 216.115 154.018 216.182 154.08C216.252 154.139 216.34 154.182 216.445 154.209C216.551 154.232 216.68 154.244 216.832 154.244C217.125 154.244 217.453 154.195 217.816 154.098C218.184 153.996 218.598 153.85 219.059 153.658L219.996 148.402H221.062L219.902 155H218.836ZM221.695 154.086C221.871 154.109 222.035 154.131 222.188 154.15C222.34 154.166 222.496 154.182 222.656 154.197C222.82 154.213 222.992 154.225 223.172 154.232C223.352 154.24 223.557 154.244 223.787 154.244C224.01 154.244 224.217 154.23 224.408 154.203C224.604 154.176 224.771 154.125 224.912 154.051C225.057 153.973 225.17 153.865 225.252 153.729C225.338 153.592 225.381 153.416 225.381 153.201C225.381 153.08 225.365 152.979 225.334 152.896C225.303 152.811 225.244 152.73 225.158 152.656C225.072 152.578 224.955 152.5 224.807 152.422C224.662 152.34 224.475 152.244 224.244 152.135L223.811 151.93C223.553 151.809 223.328 151.686 223.137 151.561C222.949 151.436 222.793 151.303 222.668 151.162C222.547 151.018 222.457 150.861 222.398 150.693C222.34 150.521 222.311 150.328 222.311 150.113C222.311 149.73 222.385 149.418 222.533 149.176C222.682 148.93 222.877 148.738 223.119 148.602C223.365 148.461 223.643 148.365 223.951 148.314C224.264 148.26 224.584 148.232 224.912 148.232C225.385 148.232 225.797 148.26 226.148 148.314C226.5 148.365 226.781 148.418 226.992 148.473L226.846 149.311C226.455 149.256 226.102 149.217 225.785 149.193C225.473 149.17 225.178 149.158 224.9 149.158C224.732 149.158 224.559 149.166 224.379 149.182C224.203 149.197 224.043 149.236 223.898 149.299C223.754 149.361 223.635 149.455 223.541 149.58C223.447 149.705 223.4 149.879 223.4 150.102C223.4 150.195 223.416 150.281 223.447 150.359C223.482 150.434 223.537 150.506 223.611 150.576C223.689 150.643 223.789 150.711 223.91 150.781C224.035 150.848 224.189 150.922 224.373 151.004L224.83 151.209C225.131 151.346 225.387 151.477 225.598 151.602C225.809 151.727 225.979 151.861 226.107 152.006C226.24 152.15 226.336 152.312 226.395 152.492C226.457 152.668 226.488 152.875 226.488 153.113C226.488 153.445 226.424 153.74 226.295 153.998C226.17 154.252 225.984 154.467 225.738 154.643C225.496 154.814 225.199 154.945 224.848 155.035C224.496 155.125 224.098 155.17 223.652 155.17C223.422 155.17 223.191 155.158 222.961 155.135C222.73 155.115 222.52 155.092 222.328 155.064C222.137 155.037 221.971 155.01 221.83 154.982C221.693 154.951 221.602 154.926 221.555 154.906L221.695 154.086ZM231.785 155L231.867 154.484C231.43 154.707 231.02 154.877 230.637 154.994C230.258 155.111 229.889 155.17 229.529 155.17C229.209 155.17 228.943 155.127 228.732 155.041C228.521 154.955 228.352 154.836 228.223 154.684C228.098 154.531 228.01 154.352 227.959 154.145C227.908 153.934 227.883 153.707 227.883 153.465C227.883 153.309 227.891 153.148 227.906 152.984C227.922 152.816 227.945 152.645 227.977 152.469L228.697 148.402H229.764L229.037 152.609C229.006 152.793 228.98 152.955 228.961 153.096C228.945 153.236 228.938 153.363 228.938 153.477C228.938 153.621 228.953 153.742 228.984 153.84C229.016 153.938 229.064 154.018 229.131 154.08C229.201 154.139 229.289 154.182 229.395 154.209C229.5 154.232 229.629 154.244 229.781 154.244C230.074 154.244 230.402 154.195 230.766 154.098C231.133 153.996 231.547 153.85 232.008 153.658L232.945 148.402H234.012L232.852 155H231.785ZM238.775 155L238.822 154.666C238.58 154.799 238.293 154.916 237.961 155.018C237.633 155.119 237.275 155.17 236.889 155.17C236.236 155.17 235.736 154.988 235.389 154.625C235.045 154.258 234.873 153.723 234.873 153.02C234.873 152.887 234.879 152.748 234.891 152.604C234.906 152.455 234.93 152.303 234.961 152.146L235.16 151.004C235.23 150.609 235.322 150.268 235.436 149.979C235.553 149.689 235.688 149.443 235.84 149.24C235.996 149.033 236.17 148.865 236.361 148.736C236.553 148.604 236.76 148.5 236.982 148.426C237.205 148.352 237.441 148.301 237.691 148.273C237.945 148.246 238.211 148.232 238.488 148.232C238.637 148.232 238.811 148.236 239.01 148.244C239.209 148.248 239.42 148.258 239.643 148.273C239.865 148.285 240.09 148.303 240.316 148.326C240.547 148.346 240.766 148.371 240.973 148.402L239.818 155H238.775ZM239.748 149.217C239.623 149.205 239.49 149.195 239.35 149.188C239.209 149.18 239.074 149.174 238.945 149.17C238.816 149.162 238.697 149.156 238.588 149.152C238.482 149.148 238.4 149.146 238.342 149.146C238.064 149.146 237.811 149.172 237.58 149.223C237.354 149.27 237.15 149.367 236.971 149.516C236.795 149.664 236.643 149.873 236.514 150.143C236.389 150.412 236.287 150.768 236.209 151.209L236.004 152.346C235.98 152.498 235.965 152.621 235.957 152.715C235.949 152.805 235.945 152.898 235.945 152.996C235.945 153.422 236.051 153.736 236.262 153.939C236.477 154.143 236.811 154.244 237.264 154.244C237.557 154.244 237.842 154.207 238.119 154.133C238.396 154.055 238.672 153.955 238.945 153.834L239.748 149.217ZM241.67 155L242.842 148.402H243.891L243.803 148.93C244.166 148.684 244.555 148.506 244.969 148.396C245.383 148.287 245.822 148.232 246.287 148.232L246.123 149.193C245.904 149.193 245.68 149.209 245.449 149.24C245.223 149.268 245 149.307 244.781 149.357C244.566 149.404 244.363 149.463 244.172 149.533C243.984 149.6 243.822 149.674 243.686 149.756L242.748 155H241.67ZM246.252 155L247.406 148.402H248.484L247.33 155H246.252ZM247.617 147.178L247.887 145.713H248.977L248.713 147.178H247.617ZM255.07 152.346C254.902 153.307 254.547 154.018 254.004 154.479C253.461 154.939 252.74 155.17 251.842 155.17C251.428 155.17 251.068 155.117 250.764 155.012C250.463 154.91 250.213 154.766 250.014 154.578C249.814 154.387 249.666 154.156 249.568 153.887C249.475 153.613 249.428 153.309 249.428 152.973C249.428 152.789 249.434 152.615 249.445 152.451C249.461 152.287 249.48 152.133 249.504 151.988L249.668 151.027C249.754 150.543 249.887 150.125 250.066 149.773C250.25 149.418 250.477 149.127 250.746 148.9C251.02 148.674 251.336 148.506 251.695 148.396C252.055 148.287 252.455 148.232 252.896 148.232C253.701 148.232 254.309 148.416 254.719 148.783C255.129 149.146 255.334 149.699 255.334 150.441C255.334 150.523 255.33 150.611 255.322 150.705C255.314 150.795 255.305 150.885 255.293 150.975C255.285 151.061 255.275 151.141 255.264 151.215C255.252 151.289 255.244 151.348 255.24 151.391L255.07 152.346ZM254.18 151.221C254.211 151.045 254.23 150.902 254.238 150.793C254.25 150.68 254.256 150.562 254.256 150.441C254.256 150.246 254.232 150.07 254.186 149.914C254.143 149.758 254.064 149.627 253.951 149.521C253.842 149.412 253.693 149.328 253.506 149.27C253.322 149.211 253.088 149.182 252.803 149.182C252.479 149.182 252.199 149.221 251.965 149.299C251.73 149.377 251.531 149.5 251.367 149.668C251.203 149.832 251.068 150.043 250.963 150.301C250.861 150.559 250.779 150.865 250.717 151.221L250.547 152.182C250.523 152.318 250.506 152.447 250.494 152.568C250.482 152.689 250.477 152.824 250.477 152.973C250.477 153.188 250.502 153.373 250.553 153.529C250.604 153.686 250.686 153.816 250.799 153.922C250.916 154.023 251.064 154.1 251.244 154.15C251.428 154.197 251.65 154.221 251.912 154.221C252.248 154.221 252.535 154.182 252.773 154.104C253.012 154.025 253.211 153.904 253.371 153.74C253.535 153.572 253.668 153.359 253.77 153.102C253.871 152.844 253.953 152.537 254.016 152.182L254.18 151.221ZM262.541 155L262.588 154.666C262.467 154.732 262.334 154.797 262.189 154.859C262.045 154.918 261.893 154.971 261.732 155.018C261.572 155.064 261.406 155.102 261.234 155.129C261.062 155.156 260.891 155.17 260.719 155.17C260.039 155.17 259.521 154.986 259.166 154.619C258.814 154.248 258.639 153.711 258.639 153.008C258.639 152.875 258.645 152.736 258.656 152.592C258.672 152.443 258.695 152.291 258.727 152.135L258.926 150.992C259.031 150.402 259.186 149.928 259.389 149.568C259.596 149.205 259.838 148.926 260.115 148.73C260.393 148.531 260.701 148.398 261.041 148.332C261.385 148.266 261.748 148.232 262.131 148.232C262.396 148.232 262.652 148.248 262.898 148.279C263.145 148.307 263.396 148.348 263.654 148.402L264.146 145.713H265.219L263.584 155H262.541ZM263.502 149.299C263.373 149.275 263.242 149.254 263.109 149.234C262.977 149.215 262.848 149.199 262.723 149.188C262.598 149.176 262.479 149.166 262.365 149.158C262.252 149.15 262.15 149.146 262.061 149.146C261.795 149.146 261.551 149.172 261.328 149.223C261.105 149.27 260.906 149.367 260.73 149.516C260.559 149.664 260.408 149.873 260.279 150.143C260.154 150.412 260.053 150.768 259.975 151.209L259.77 152.346C259.754 152.428 259.742 152.5 259.734 152.562C259.727 152.621 259.721 152.676 259.717 152.727C259.713 152.777 259.711 152.826 259.711 152.873C259.711 152.916 259.711 152.961 259.711 153.008C259.711 153.434 259.814 153.746 260.021 153.945C260.232 154.145 260.564 154.244 261.018 154.244C261.318 154.244 261.607 154.207 261.885 154.133C262.162 154.055 262.438 153.955 262.711 153.834L263.502 149.299ZM270.557 154.906C270.311 154.965 269.986 155.023 269.584 155.082C269.182 155.141 268.715 155.17 268.184 155.17C267.719 155.17 267.32 155.119 266.988 155.018C266.66 154.92 266.393 154.775 266.186 154.584C265.979 154.393 265.826 154.158 265.729 153.881C265.635 153.6 265.588 153.281 265.588 152.926C265.588 152.742 265.602 152.553 265.629 152.357C265.656 152.162 265.688 151.955 265.723 151.736L265.805 151.232C265.891 150.713 266.031 150.266 266.227 149.891C266.426 149.512 266.666 149.199 266.947 148.953C267.229 148.707 267.545 148.525 267.896 148.408C268.252 148.291 268.631 148.232 269.033 148.232C269.416 148.232 269.76 148.277 270.064 148.367C270.369 148.453 270.627 148.588 270.838 148.771C271.049 148.955 271.211 149.188 271.324 149.469C271.438 149.75 271.494 150.086 271.494 150.477C271.494 150.742 271.477 151.006 271.441 151.268C271.406 151.525 271.355 151.801 271.289 152.094H266.754L266.695 152.334C266.688 152.365 266.682 152.406 266.678 152.457C266.674 152.504 266.668 152.557 266.66 152.615C266.656 152.674 266.652 152.734 266.648 152.797C266.648 152.855 266.648 152.914 266.648 152.973C266.648 153.16 266.674 153.332 266.725 153.488C266.775 153.645 266.865 153.777 266.994 153.887C267.123 153.996 267.297 154.082 267.516 154.145C267.738 154.203 268.02 154.232 268.359 154.232C268.547 154.232 268.742 154.229 268.945 154.221C269.152 154.209 269.359 154.195 269.566 154.18C269.773 154.16 269.975 154.139 270.17 154.115C270.369 154.092 270.551 154.066 270.715 154.039L270.557 154.906ZM270.34 151.209C270.367 151.072 270.389 150.941 270.404 150.816C270.42 150.691 270.428 150.578 270.428 150.477C270.428 150.312 270.406 150.152 270.363 149.996C270.324 149.836 270.25 149.695 270.141 149.574C270.035 149.453 269.889 149.355 269.701 149.281C269.518 149.207 269.279 149.17 268.986 149.17C268.74 149.17 268.521 149.199 268.33 149.258C268.143 149.312 267.977 149.389 267.832 149.486C267.688 149.584 267.564 149.697 267.463 149.826C267.365 149.955 267.281 150.092 267.211 150.236C267.141 150.377 267.084 150.521 267.041 150.67C267.002 150.814 266.971 150.953 266.947 151.086L266.924 151.209H270.34ZM274.752 155L276.387 145.713H277.453L275.818 155H274.752ZM281.783 155L281.83 154.666C281.588 154.799 281.301 154.916 280.969 155.018C280.641 155.119 280.283 155.17 279.896 155.17C279.244 155.17 278.744 154.988 278.396 154.625C278.053 154.258 277.881 153.723 277.881 153.02C277.881 152.887 277.887 152.748 277.898 152.604C277.914 152.455 277.938 152.303 277.969 152.146L278.168 151.004C278.238 150.609 278.33 150.268 278.443 149.979C278.561 149.689 278.695 149.443 278.848 149.24C279.004 149.033 279.178 148.865 279.369 148.736C279.561 148.604 279.768 148.5 279.99 148.426C280.213 148.352 280.449 148.301 280.699 148.273C280.953 148.246 281.219 148.232 281.496 148.232C281.645 148.232 281.818 148.236 282.018 148.244C282.217 148.248 282.428 148.258 282.65 148.273C282.873 148.285 283.098 148.303 283.324 148.326C283.555 148.346 283.773 148.371 283.98 148.402L282.826 155H281.783ZM282.756 149.217C282.631 149.205 282.498 149.195 282.357 149.188C282.217 149.18 282.082 149.174 281.953 149.17C281.824 149.162 281.705 149.156 281.596 149.152C281.49 149.148 281.408 149.146 281.35 149.146C281.072 149.146 280.818 149.172 280.588 149.223C280.361 149.27 280.158 149.367 279.979 149.516C279.803 149.664 279.65 149.873 279.521 150.143C279.396 150.412 279.295 150.768 279.217 151.209L279.012 152.346C278.988 152.498 278.973 152.621 278.965 152.715C278.957 152.805 278.953 152.898 278.953 152.996C278.953 153.422 279.059 153.736 279.27 153.939C279.484 154.143 279.818 154.244 280.271 154.244C280.564 154.244 280.85 154.207 281.127 154.133C281.404 154.055 281.68 153.955 281.953 153.834L282.756 149.217ZM287.045 155L288.68 145.713H289.746L288.111 155H287.045ZM290.104 155L291.258 148.402H292.336L291.182 155H290.104ZM291.469 147.178L291.738 145.713H292.828L292.564 147.178H291.469ZM293.016 154.086C293.191 154.109 293.355 154.131 293.508 154.15C293.66 154.166 293.816 154.182 293.977 154.197C294.141 154.213 294.312 154.225 294.492 154.232C294.672 154.24 294.877 154.244 295.107 154.244C295.33 154.244 295.537 154.23 295.729 154.203C295.924 154.176 296.092 154.125 296.232 154.051C296.377 153.973 296.49 153.865 296.572 153.729C296.658 153.592 296.701 153.416 296.701 153.201C296.701 153.08 296.686 152.979 296.654 152.896C296.623 152.811 296.564 152.73 296.479 152.656C296.393 152.578 296.275 152.5 296.127 152.422C295.982 152.34 295.795 152.244 295.564 152.135L295.131 151.93C294.873 151.809 294.648 151.686 294.457 151.561C294.27 151.436 294.113 151.303 293.988 151.162C293.867 151.018 293.777 150.861 293.719 150.693C293.66 150.521 293.631 150.328 293.631 150.113C293.631 149.73 293.705 149.418 293.854 149.176C294.002 148.93 294.197 148.738 294.439 148.602C294.686 148.461 294.963 148.365 295.271 148.314C295.584 148.26 295.904 148.232 296.232 148.232C296.705 148.232 297.117 148.26 297.469 148.314C297.82 148.365 298.102 148.418 298.312 148.473L298.166 149.311C297.775 149.256 297.422 149.217 297.105 149.193C296.793 149.17 296.498 149.158 296.221 149.158C296.053 149.158 295.879 149.166 295.699 149.182C295.523 149.197 295.363 149.236 295.219 149.299C295.074 149.361 294.955 149.455 294.861 149.58C294.768 149.705 294.721 149.879 294.721 150.102C294.721 150.195 294.736 150.281 294.768 150.359C294.803 150.434 294.857 150.506 294.932 150.576C295.01 150.643 295.109 150.711 295.23 150.781C295.355 150.848 295.51 150.922 295.693 151.004L296.15 151.209C296.451 151.346 296.707 151.477 296.918 151.602C297.129 151.727 297.299 151.861 297.428 152.006C297.561 152.15 297.656 152.312 297.715 152.492C297.777 152.668 297.809 152.875 297.809 153.113C297.809 153.445 297.744 153.74 297.615 153.998C297.49 154.252 297.305 154.467 297.059 154.643C296.816 154.814 296.52 154.945 296.168 155.035C295.816 155.125 295.418 155.17 294.973 155.17C294.742 155.17 294.512 155.158 294.281 155.135C294.051 155.115 293.84 155.092 293.648 155.064C293.457 155.037 293.291 155.01 293.15 154.982C293.014 154.951 292.922 154.926 292.875 154.906L293.016 154.086ZM302.32 154.988C302.273 155.004 302.205 155.021 302.115 155.041C302.029 155.061 301.93 155.08 301.816 155.1C301.707 155.119 301.588 155.135 301.459 155.146C301.33 155.162 301.201 155.17 301.072 155.17C300.588 155.17 300.238 155.068 300.023 154.865C299.812 154.662 299.707 154.359 299.707 153.957C299.707 153.867 299.711 153.771 299.719 153.67C299.73 153.564 299.746 153.455 299.766 153.342L300.475 149.299L299.168 149.205L299.297 148.402H300.633L300.943 146.686H302.021L301.711 148.402H303.475L303.316 149.299H301.553L300.82 153.441C300.801 153.543 300.785 153.635 300.773 153.717C300.766 153.799 300.762 153.871 300.762 153.934C300.762 154.09 300.807 154.191 300.896 154.238C300.986 154.281 301.143 154.303 301.365 154.303C301.455 154.303 301.551 154.301 301.652 154.297C301.758 154.293 301.861 154.289 301.963 154.285C302.064 154.277 302.158 154.271 302.244 154.268C302.33 154.26 302.4 154.252 302.455 154.244L302.32 154.988ZM307.658 155L307.705 154.666C307.463 154.799 307.176 154.916 306.844 155.018C306.516 155.119 306.158 155.17 305.771 155.17C305.119 155.17 304.619 154.988 304.271 154.625C303.928 154.258 303.756 153.723 303.756 153.02C303.756 152.887 303.762 152.748 303.773 152.604C303.789 152.455 303.812 152.303 303.844 152.146L304.043 151.004C304.113 150.609 304.205 150.268 304.318 149.979C304.436 149.689 304.57 149.443 304.723 149.24C304.879 149.033 305.053 148.865 305.244 148.736C305.436 148.604 305.643 148.5 305.865 148.426C306.088 148.352 306.324 148.301 306.574 148.273C306.828 148.246 307.094 148.232 307.371 148.232C307.52 148.232 307.693 148.236 307.893 148.244C308.092 148.248 308.303 148.258 308.525 148.273C308.748 148.285 308.973 148.303 309.199 148.326C309.43 148.346 309.648 148.371 309.855 148.402L308.701 155H307.658ZM308.631 149.217C308.506 149.205 308.373 149.195 308.232 149.188C308.092 149.18 307.957 149.174 307.828 149.17C307.699 149.162 307.58 149.156 307.471 149.152C307.365 149.148 307.283 149.146 307.225 149.146C306.947 149.146 306.693 149.172 306.463 149.223C306.236 149.27 306.033 149.367 305.854 149.516C305.678 149.664 305.525 149.873 305.396 150.143C305.271 150.412 305.17 150.768 305.092 151.209L304.887 152.346C304.863 152.498 304.848 152.621 304.84 152.715C304.832 152.805 304.828 152.898 304.828 152.996C304.828 153.422 304.934 153.736 305.145 153.939C305.359 154.143 305.693 154.244 306.146 154.244C306.439 154.244 306.725 154.207 307.002 154.133C307.279 154.055 307.555 153.955 307.828 153.834L308.631 149.217ZM312.381 157.52L313.998 148.402H315.018L314.947 148.842C315.279 148.639 315.621 148.486 315.973 148.385C316.324 148.283 316.658 148.232 316.975 148.232C317.604 148.232 318.086 148.396 318.422 148.725C318.762 149.049 318.932 149.568 318.932 150.283C318.932 150.459 318.916 150.691 318.885 150.98C318.854 151.266 318.793 151.645 318.703 152.117C318.582 152.754 318.42 153.271 318.217 153.67C318.018 154.068 317.777 154.379 317.496 154.602C317.215 154.824 316.895 154.975 316.535 155.053C316.176 155.131 315.779 155.17 315.346 155.17C315.232 155.17 315.111 155.164 314.982 155.152C314.857 155.145 314.73 155.131 314.602 155.111C314.473 155.096 314.348 155.076 314.227 155.053C314.105 155.029 313.998 155.004 313.904 154.977L313.447 157.52H312.381ZM314.062 154.074C314.32 154.129 314.568 154.174 314.807 154.209C315.045 154.24 315.275 154.256 315.498 154.256C315.787 154.256 316.045 154.227 316.271 154.168C316.498 154.109 316.697 153.998 316.869 153.834C317.045 153.666 317.195 153.432 317.32 153.131C317.449 152.83 317.559 152.438 317.648 151.953C317.695 151.723 317.73 151.523 317.754 151.355C317.781 151.188 317.803 151.041 317.818 150.916C317.834 150.787 317.844 150.678 317.848 150.588C317.852 150.494 317.854 150.408 317.854 150.33C317.854 149.912 317.752 149.617 317.549 149.445C317.346 149.27 317.043 149.182 316.641 149.182C316.512 149.182 316.385 149.189 316.26 149.205C316.135 149.221 316.002 149.248 315.861 149.287C315.721 149.322 315.568 149.371 315.404 149.434C315.24 149.496 315.053 149.576 314.842 149.674L314.062 154.074ZM323.818 155L323.865 154.666C323.623 154.799 323.336 154.916 323.004 155.018C322.676 155.119 322.318 155.17 321.932 155.17C321.279 155.17 320.779 154.988 320.432 154.625C320.088 154.258 319.916 153.723 319.916 153.02C319.916 152.887 319.922 152.748 319.934 152.604C319.949 152.455 319.973 152.303 320.004 152.146L320.203 151.004C320.273 150.609 320.365 150.268 320.479 149.979C320.596 149.689 320.73 149.443 320.883 149.24C321.039 149.033 321.213 148.865 321.404 148.736C321.596 148.604 321.803 148.5 322.025 148.426C322.248 148.352 322.484 148.301 322.734 148.273C322.988 148.246 323.254 148.232 323.531 148.232C323.68 148.232 323.854 148.236 324.053 148.244C324.252 148.248 324.463 148.258 324.686 148.273C324.908 148.285 325.133 148.303 325.359 148.326C325.59 148.346 325.809 148.371 326.016 148.402L324.861 155H323.818ZM324.791 149.217C324.666 149.205 324.533 149.195 324.393 149.188C324.252 149.18 324.117 149.174 323.988 149.17C323.859 149.162 323.74 149.156 323.631 149.152C323.525 149.148 323.443 149.146 323.385 149.146C323.107 149.146 322.854 149.172 322.623 149.223C322.396 149.27 322.193 149.367 322.014 149.516C321.838 149.664 321.686 149.873 321.557 150.143C321.432 150.412 321.33 150.768 321.252 151.209L321.047 152.346C321.023 152.498 321.008 152.621 321 152.715C320.992 152.805 320.988 152.898 320.988 152.996C320.988 153.422 321.094 153.736 321.305 153.939C321.52 154.143 321.854 154.244 322.307 154.244C322.6 154.244 322.885 154.207 323.162 154.133C323.439 154.055 323.715 153.955 323.988 153.834L324.791 149.217ZM326.713 155L327.885 148.402H328.934L328.846 148.93C329.209 148.684 329.598 148.506 330.012 148.396C330.426 148.287 330.865 148.232 331.33 148.232L331.166 149.193C330.947 149.193 330.723 149.209 330.492 149.24C330.266 149.268 330.043 149.307 329.824 149.357C329.609 149.404 329.406 149.463 329.215 149.533C329.027 149.6 328.865 149.674 328.729 149.756L327.791 155H326.713ZM335.268 155L335.314 154.666C335.072 154.799 334.785 154.916 334.453 155.018C334.125 155.119 333.768 155.17 333.381 155.17C332.729 155.17 332.229 154.988 331.881 154.625C331.537 154.258 331.365 153.723 331.365 153.02C331.365 152.887 331.371 152.748 331.383 152.604C331.398 152.455 331.422 152.303 331.453 152.146L331.652 151.004C331.723 150.609 331.814 150.268 331.928 149.979C332.045 149.689 332.18 149.443 332.332 149.24C332.488 149.033 332.662 148.865 332.854 148.736C333.045 148.604 333.252 148.5 333.475 148.426C333.697 148.352 333.934 148.301 334.184 148.273C334.438 148.246 334.703 148.232 334.98 148.232C335.129 148.232 335.303 148.236 335.502 148.244C335.701 148.248 335.912 148.258 336.135 148.273C336.357 148.285 336.582 148.303 336.809 148.326C337.039 148.346 337.258 148.371 337.465 148.402L336.311 155H335.268ZM336.24 149.217C336.115 149.205 335.982 149.195 335.842 149.188C335.701 149.18 335.566 149.174 335.438 149.17C335.309 149.162 335.189 149.156 335.08 149.152C334.975 149.148 334.893 149.146 334.834 149.146C334.557 149.146 334.303 149.172 334.072 149.223C333.846 149.27 333.643 149.367 333.463 149.516C333.287 149.664 333.135 149.873 333.006 150.143C332.881 150.412 332.779 150.768 332.701 151.209L332.496 152.346C332.473 152.498 332.457 152.621 332.449 152.715C332.441 152.805 332.438 152.898 332.438 152.996C332.438 153.422 332.543 153.736 332.754 153.939C332.969 154.143 333.303 154.244 333.756 154.244C334.049 154.244 334.334 154.207 334.611 154.133C334.889 154.055 335.164 153.955 335.438 153.834L336.24 149.217ZM344.719 154.941C344.66 154.961 344.572 154.982 344.455 155.006C344.338 155.033 344.199 155.059 344.039 155.082C343.879 155.105 343.701 155.125 343.506 155.141C343.311 155.16 343.105 155.17 342.891 155.17C342.48 155.17 342.131 155.115 341.842 155.006C341.557 154.896 341.324 154.744 341.145 154.549C340.969 154.35 340.84 154.113 340.758 153.84C340.676 153.566 340.635 153.266 340.635 152.938C340.635 152.645 340.664 152.336 340.723 152.012L340.887 151.016C341.051 150.055 341.391 149.352 341.906 148.906C342.422 148.457 343.127 148.232 344.021 148.232C344.26 148.232 344.48 148.242 344.684 148.262C344.887 148.277 345.066 148.297 345.223 148.32C345.379 148.344 345.512 148.369 345.621 148.396C345.73 148.424 345.812 148.445 345.867 148.461L345.727 149.275C345.328 149.232 344.986 149.203 344.701 149.188C344.416 149.168 344.186 149.158 344.01 149.158C343.744 149.158 343.5 149.188 343.277 149.246C343.055 149.305 342.855 149.41 342.68 149.562C342.504 149.715 342.354 149.924 342.229 150.189C342.104 150.451 342.006 150.787 341.936 151.197L341.766 152.193C341.719 152.471 341.695 152.719 341.695 152.938C341.695 153.195 341.725 153.408 341.783 153.576C341.842 153.744 341.93 153.879 342.047 153.98C342.168 154.078 342.316 154.146 342.492 154.186C342.672 154.225 342.881 154.244 343.119 154.244C343.295 154.244 343.525 154.234 343.811 154.215C344.1 154.195 344.449 154.164 344.859 154.121L344.719 154.941ZM352.008 152.346C351.84 153.307 351.484 154.018 350.941 154.479C350.398 154.939 349.678 155.17 348.779 155.17C348.365 155.17 348.006 155.117 347.701 155.012C347.4 154.91 347.15 154.766 346.951 154.578C346.752 154.387 346.604 154.156 346.506 153.887C346.412 153.613 346.365 153.309 346.365 152.973C346.365 152.789 346.371 152.615 346.383 152.451C346.398 152.287 346.418 152.133 346.441 151.988L346.605 151.027C346.691 150.543 346.824 150.125 347.004 149.773C347.188 149.418 347.414 149.127 347.684 148.9C347.957 148.674 348.273 148.506 348.633 148.396C348.992 148.287 349.393 148.232 349.834 148.232C350.639 148.232 351.246 148.416 351.656 148.783C352.066 149.146 352.271 149.699 352.271 150.441C352.271 150.523 352.268 150.611 352.26 150.705C352.252 150.795 352.242 150.885 352.23 150.975C352.223 151.061 352.213 151.141 352.201 151.215C352.189 151.289 352.182 151.348 352.178 151.391L352.008 152.346ZM351.117 151.221C351.148 151.045 351.168 150.902 351.176 150.793C351.188 150.68 351.193 150.562 351.193 150.441C351.193 150.246 351.17 150.07 351.123 149.914C351.08 149.758 351.002 149.627 350.889 149.521C350.779 149.412 350.631 149.328 350.443 149.27C350.26 149.211 350.025 149.182 349.74 149.182C349.416 149.182 349.137 149.221 348.902 149.299C348.668 149.377 348.469 149.5 348.305 149.668C348.141 149.832 348.006 150.043 347.9 150.301C347.799 150.559 347.717 150.865 347.654 151.221L347.484 152.182C347.461 152.318 347.443 152.447 347.432 152.568C347.42 152.689 347.414 152.824 347.414 152.973C347.414 153.188 347.439 153.373 347.49 153.529C347.541 153.686 347.623 153.816 347.736 153.922C347.854 154.023 348.002 154.1 348.182 154.15C348.365 154.197 348.588 154.221 348.85 154.221C349.186 154.221 349.473 154.182 349.711 154.104C349.949 154.025 350.148 153.904 350.309 153.74C350.473 153.572 350.605 153.359 350.707 153.102C350.809 152.844 350.891 152.537 350.953 152.182L351.117 151.221ZM360.516 155L361.283 150.617C361.307 150.461 361.326 150.316 361.342 150.184C361.361 150.047 361.375 149.924 361.383 149.814C361.383 149.709 361.369 149.615 361.342 149.533C361.318 149.451 361.275 149.383 361.213 149.328C361.154 149.27 361.072 149.227 360.967 149.199C360.861 149.172 360.727 149.158 360.562 149.158C360.328 149.158 360.055 149.207 359.742 149.305C359.43 149.402 359.115 149.537 358.799 149.709C358.799 149.865 358.787 150.02 358.764 150.172C358.74 150.324 358.717 150.473 358.693 150.617L357.926 155H356.83L357.604 150.617C357.635 150.453 357.658 150.305 357.674 150.172C357.689 150.039 357.697 149.916 357.697 149.803C357.697 149.697 357.686 149.605 357.662 149.527C357.639 149.445 357.6 149.377 357.545 149.322C357.49 149.268 357.414 149.227 357.316 149.199C357.219 149.172 357.098 149.158 356.953 149.158C356.809 149.158 356.658 149.176 356.502 149.211C356.346 149.242 356.189 149.285 356.033 149.34C355.877 149.395 355.723 149.457 355.57 149.527C355.422 149.594 355.283 149.662 355.154 149.732L354.217 155H353.139L354.311 148.402H355.371L355.283 148.918C355.6 148.719 355.934 148.555 356.285 148.426C356.637 148.297 357 148.232 357.375 148.232C357.566 148.232 357.734 148.25 357.879 148.285C358.027 148.316 358.154 148.363 358.26 148.426C358.369 148.488 358.461 148.562 358.535 148.648C358.609 148.734 358.67 148.832 358.717 148.941C359.143 148.688 359.529 148.506 359.877 148.396C360.229 148.287 360.537 148.232 360.803 148.232C361.146 148.232 361.426 148.273 361.641 148.355C361.859 148.434 362.029 148.541 362.15 148.678C362.275 148.811 362.359 148.965 362.402 149.141C362.449 149.316 362.473 149.498 362.473 149.686C362.473 149.865 362.459 150.047 362.432 150.23C362.404 150.414 362.375 150.588 362.344 150.752L361.582 155H360.516ZM362.947 157.52L364.564 148.402H365.584L365.514 148.842C365.846 148.639 366.188 148.486 366.539 148.385C366.891 148.283 367.225 148.232 367.541 148.232C368.17 148.232 368.652 148.396 368.988 148.725C369.328 149.049 369.498 149.568 369.498 150.283C369.498 150.459 369.482 150.691 369.451 150.98C369.42 151.266 369.359 151.645 369.27 152.117C369.148 152.754 368.986 153.271 368.783 153.67C368.584 154.068 368.344 154.379 368.062 154.602C367.781 154.824 367.461 154.975 367.102 155.053C366.742 155.131 366.346 155.17 365.912 155.17C365.799 155.17 365.678 155.164 365.549 155.152C365.424 155.145 365.297 155.131 365.168 155.111C365.039 155.096 364.914 155.076 364.793 155.053C364.672 155.029 364.564 155.004 364.471 154.977L364.014 157.52H362.947ZM364.629 154.074C364.887 154.129 365.135 154.174 365.373 154.209C365.611 154.24 365.842 154.256 366.064 154.256C366.354 154.256 366.611 154.227 366.838 154.168C367.064 154.109 367.264 153.998 367.436 153.834C367.611 153.666 367.762 153.432 367.887 153.131C368.016 152.83 368.125 152.438 368.215 151.953C368.262 151.723 368.297 151.523 368.32 151.355C368.348 151.188 368.369 151.041 368.385 150.916C368.4 150.787 368.41 150.678 368.414 150.588C368.418 150.494 368.42 150.408 368.42 150.33C368.42 149.912 368.318 149.617 368.115 149.445C367.912 149.27 367.609 149.182 367.207 149.182C367.078 149.182 366.951 149.189 366.826 149.205C366.701 149.221 366.568 149.248 366.428 149.287C366.287 149.322 366.135 149.371 365.971 149.434C365.807 149.496 365.619 149.576 365.408 149.674L364.629 154.074ZM370.412 155L372.047 145.713H373.113L371.479 155H370.412ZM378.521 154.906C378.275 154.965 377.951 155.023 377.549 155.082C377.146 155.141 376.68 155.17 376.148 155.17C375.684 155.17 375.285 155.119 374.953 155.018C374.625 154.92 374.357 154.775 374.15 154.584C373.943 154.393 373.791 154.158 373.693 153.881C373.6 153.6 373.553 153.281 373.553 152.926C373.553 152.742 373.566 152.553 373.594 152.357C373.621 152.162 373.652 151.955 373.688 151.736L373.77 151.232C373.855 150.713 373.996 150.266 374.191 149.891C374.391 149.512 374.631 149.199 374.912 148.953C375.193 148.707 375.51 148.525 375.861 148.408C376.217 148.291 376.596 148.232 376.998 148.232C377.381 148.232 377.725 148.277 378.029 148.367C378.334 148.453 378.592 148.588 378.803 148.771C379.014 148.955 379.176 149.188 379.289 149.469C379.402 149.75 379.459 150.086 379.459 150.477C379.459 150.742 379.441 151.006 379.406 151.268C379.371 151.525 379.32 151.801 379.254 152.094H374.719L374.66 152.334C374.652 152.365 374.646 152.406 374.643 152.457C374.639 152.504 374.633 152.557 374.625 152.615C374.621 152.674 374.617 152.734 374.613 152.797C374.613 152.855 374.613 152.914 374.613 152.973C374.613 153.16 374.639 153.332 374.689 153.488C374.74 153.645 374.83 153.777 374.959 153.887C375.088 153.996 375.262 154.082 375.48 154.145C375.703 154.203 375.984 154.232 376.324 154.232C376.512 154.232 376.707 154.229 376.91 154.221C377.117 154.209 377.324 154.195 377.531 154.18C377.738 154.16 377.939 154.139 378.135 154.115C378.334 154.092 378.516 154.066 378.68 154.039L378.521 154.906ZM378.305 151.209C378.332 151.072 378.354 150.941 378.369 150.816C378.385 150.691 378.393 150.578 378.393 150.477C378.393 150.312 378.371 150.152 378.328 149.996C378.289 149.836 378.215 149.695 378.105 149.574C378 149.453 377.854 149.355 377.666 149.281C377.482 149.207 377.244 149.17 376.951 149.17C376.705 149.17 376.486 149.199 376.295 149.258C376.107 149.312 375.941 149.389 375.797 149.486C375.652 149.584 375.529 149.697 375.428 149.826C375.33 149.955 375.246 150.092 375.176 150.236C375.105 150.377 375.049 150.521 375.006 150.67C374.967 150.814 374.936 150.953 374.912 151.086L374.889 151.209H378.305ZM383.285 154.988C383.238 155.004 383.17 155.021 383.08 155.041C382.994 155.061 382.895 155.08 382.781 155.1C382.672 155.119 382.553 155.135 382.424 155.146C382.295 155.162 382.166 155.17 382.037 155.17C381.553 155.17 381.203 155.068 380.988 154.865C380.777 154.662 380.672 154.359 380.672 153.957C380.672 153.867 380.676 153.771 380.684 153.67C380.695 153.564 380.711 153.455 380.73 153.342L381.439 149.299L380.133 149.205L380.262 148.402H381.598L381.908 146.686H382.986L382.676 148.402H384.439L384.281 149.299H382.518L381.785 153.441C381.766 153.543 381.75 153.635 381.738 153.717C381.73 153.799 381.727 153.871 381.727 153.934C381.727 154.09 381.771 154.191 381.861 154.238C381.951 154.281 382.107 154.303 382.33 154.303C382.42 154.303 382.516 154.301 382.617 154.297C382.723 154.293 382.826 154.289 382.928 154.285C383.029 154.277 383.123 154.271 383.209 154.268C383.295 154.26 383.365 154.252 383.42 154.244L383.285 154.988ZM388.623 155L388.67 154.666C388.428 154.799 388.141 154.916 387.809 155.018C387.48 155.119 387.123 155.17 386.736 155.17C386.084 155.17 385.584 154.988 385.236 154.625C384.893 154.258 384.721 153.723 384.721 153.02C384.721 152.887 384.727 152.748 384.738 152.604C384.754 152.455 384.777 152.303 384.809 152.146L385.008 151.004C385.078 150.609 385.17 150.268 385.283 149.979C385.4 149.689 385.535 149.443 385.688 149.24C385.844 149.033 386.018 148.865 386.209 148.736C386.4 148.604 386.607 148.5 386.83 148.426C387.053 148.352 387.289 148.301 387.539 148.273C387.793 148.246 388.059 148.232 388.336 148.232C388.484 148.232 388.658 148.236 388.857 148.244C389.057 148.248 389.268 148.258 389.49 148.273C389.713 148.285 389.938 148.303 390.164 148.326C390.395 148.346 390.613 148.371 390.82 148.402L389.666 155H388.623ZM389.596 149.217C389.471 149.205 389.338 149.195 389.197 149.188C389.057 149.18 388.922 149.174 388.793 149.17C388.664 149.162 388.545 149.156 388.436 149.152C388.33 149.148 388.248 149.146 388.189 149.146C387.912 149.146 387.658 149.172 387.428 149.223C387.201 149.27 386.998 149.367 386.818 149.516C386.643 149.664 386.49 149.873 386.361 150.143C386.236 150.412 386.135 150.768 386.057 151.209L385.852 152.346C385.828 152.498 385.812 152.621 385.805 152.715C385.797 152.805 385.793 152.898 385.793 152.996C385.793 153.422 385.898 153.736 386.109 153.939C386.324 154.143 386.658 154.244 387.111 154.244C387.404 154.244 387.689 154.207 387.967 154.133C388.244 154.055 388.52 153.955 388.793 153.834L389.596 149.217ZM391.518 155L392.689 148.402H393.738L393.65 148.93C394.014 148.684 394.402 148.506 394.816 148.396C395.23 148.287 395.67 148.232 396.135 148.232L395.971 149.193C395.752 149.193 395.527 149.209 395.297 149.24C395.07 149.268 394.848 149.307 394.629 149.357C394.414 149.404 394.211 149.463 394.02 149.533C393.832 149.6 393.67 149.674 393.533 149.756L392.596 155H391.518ZM398.238 154.086C398.414 154.109 398.578 154.131 398.73 154.15C398.883 154.166 399.039 154.182 399.199 154.197C399.363 154.213 399.535 154.225 399.715 154.232C399.895 154.24 400.1 154.244 400.33 154.244C400.553 154.244 400.76 154.23 400.951 154.203C401.146 154.176 401.314 154.125 401.455 154.051C401.6 153.973 401.713 153.865 401.795 153.729C401.881 153.592 401.924 153.416 401.924 153.201C401.924 153.08 401.908 152.979 401.877 152.896C401.846 152.811 401.787 152.73 401.701 152.656C401.615 152.578 401.498 152.5 401.35 152.422C401.205 152.34 401.018 152.244 400.787 152.135L400.354 151.93C400.096 151.809 399.871 151.686 399.68 151.561C399.492 151.436 399.336 151.303 399.211 151.162C399.09 151.018 399 150.861 398.941 150.693C398.883 150.521 398.854 150.328 398.854 150.113C398.854 149.73 398.928 149.418 399.076 149.176C399.225 148.93 399.42 148.738 399.662 148.602C399.908 148.461 400.186 148.365 400.494 148.314C400.807 148.26 401.127 148.232 401.455 148.232C401.928 148.232 402.34 148.26 402.691 148.314C403.043 148.365 403.324 148.418 403.535 148.473L403.389 149.311C402.998 149.256 402.645 149.217 402.328 149.193C402.016 149.17 401.721 149.158 401.443 149.158C401.275 149.158 401.102 149.166 400.922 149.182C400.746 149.197 400.586 149.236 400.441 149.299C400.297 149.361 400.178 149.455 400.084 149.58C399.99 149.705 399.943 149.879 399.943 150.102C399.943 150.195 399.959 150.281 399.99 150.359C400.025 150.434 400.08 150.506 400.154 150.576C400.232 150.643 400.332 150.711 400.453 150.781C400.578 150.848 400.732 150.922 400.916 151.004L401.373 151.209C401.674 151.346 401.93 151.477 402.141 151.602C402.352 151.727 402.521 151.861 402.65 152.006C402.783 152.15 402.879 152.312 402.938 152.492C403 152.668 403.031 152.875 403.031 153.113C403.031 153.445 402.967 153.74 402.838 153.998C402.713 154.252 402.527 154.467 402.281 154.643C402.039 154.814 401.742 154.945 401.391 155.035C401.039 155.125 400.641 155.17 400.195 155.17C399.965 155.17 399.734 155.158 399.504 155.135C399.273 155.115 399.062 155.092 398.871 155.064C398.68 155.037 398.514 155.01 398.373 154.982C398.236 154.951 398.145 154.926 398.098 154.906L398.238 154.086ZM408.328 155L408.41 154.484C407.973 154.707 407.562 154.877 407.18 154.994C406.801 155.111 406.432 155.17 406.072 155.17C405.752 155.17 405.486 155.127 405.275 155.041C405.064 154.955 404.895 154.836 404.766 154.684C404.641 154.531 404.553 154.352 404.502 154.145C404.451 153.934 404.426 153.707 404.426 153.465C404.426 153.309 404.434 153.148 404.449 152.984C404.465 152.816 404.488 152.645 404.52 152.469L405.24 148.402H406.307L405.58 152.609C405.549 152.793 405.523 152.955 405.504 153.096C405.488 153.236 405.48 153.363 405.48 153.477C405.48 153.621 405.496 153.742 405.527 153.84C405.559 153.938 405.607 154.018 405.674 154.08C405.744 154.139 405.832 154.182 405.938 154.209C406.043 154.232 406.172 154.244 406.324 154.244C406.617 154.244 406.945 154.195 407.309 154.098C407.676 153.996 408.09 153.85 408.551 153.658L409.488 148.402H410.555L409.395 155H408.328ZM411.188 154.086C411.363 154.109 411.527 154.131 411.68 154.15C411.832 154.166 411.988 154.182 412.148 154.197C412.312 154.213 412.484 154.225 412.664 154.232C412.844 154.24 413.049 154.244 413.279 154.244C413.502 154.244 413.709 154.23 413.9 154.203C414.096 154.176 414.264 154.125 414.404 154.051C414.549 153.973 414.662 153.865 414.744 153.729C414.83 153.592 414.873 153.416 414.873 153.201C414.873 153.08 414.857 152.979 414.826 152.896C414.795 152.811 414.736 152.73 414.65 152.656C414.564 152.578 414.447 152.5 414.299 152.422C414.154 152.34 413.967 152.244 413.736 152.135L413.303 151.93C413.045 151.809 412.82 151.686 412.629 151.561C412.441 151.436 412.285 151.303 412.16 151.162C412.039 151.018 411.949 150.861 411.891 150.693C411.832 150.521 411.803 150.328 411.803 150.113C411.803 149.73 411.877 149.418 412.025 149.176C412.174 148.93 412.369 148.738 412.611 148.602C412.857 148.461 413.135 148.365 413.443 148.314C413.756 148.26 414.076 148.232 414.404 148.232C414.877 148.232 415.289 148.26 415.641 148.314C415.992 148.365 416.273 148.418 416.484 148.473L416.338 149.311C415.947 149.256 415.594 149.217 415.277 149.193C414.965 149.17 414.67 149.158 414.393 149.158C414.225 149.158 414.051 149.166 413.871 149.182C413.695 149.197 413.535 149.236 413.391 149.299C413.246 149.361 413.127 149.455 413.033 149.58C412.939 149.705 412.893 149.879 412.893 150.102C412.893 150.195 412.908 150.281 412.939 150.359C412.975 150.434 413.029 150.506 413.104 150.576C413.182 150.643 413.281 150.711 413.402 150.781C413.527 150.848 413.682 150.922 413.865 151.004L414.322 151.209C414.623 151.346 414.879 151.477 415.09 151.602C415.301 151.727 415.471 151.861 415.6 152.006C415.732 152.15 415.828 152.312 415.887 152.492C415.949 152.668 415.98 152.875 415.98 153.113C415.98 153.445 415.916 153.74 415.787 153.998C415.662 154.252 415.477 154.467 415.23 154.643C414.988 154.814 414.691 154.945 414.34 155.035C413.988 155.125 413.59 155.17 413.145 155.17C412.914 155.17 412.684 155.158 412.453 155.135C412.223 155.115 412.012 155.092 411.82 155.064C411.629 155.037 411.463 155.01 411.322 154.982C411.186 154.951 411.094 154.926 411.047 154.906L411.188 154.086ZM423.404 155L423.451 154.666C423.33 154.732 423.197 154.797 423.053 154.859C422.908 154.918 422.756 154.971 422.596 155.018C422.436 155.064 422.27 155.102 422.098 155.129C421.926 155.156 421.754 155.17 421.582 155.17C420.902 155.17 420.385 154.986 420.029 154.619C419.678 154.248 419.502 153.711 419.502 153.008C419.502 152.875 419.508 152.736 419.52 152.592C419.535 152.443 419.559 152.291 419.59 152.135L419.789 150.992C419.895 150.402 420.049 149.928 420.252 149.568C420.459 149.205 420.701 148.926 420.979 148.73C421.256 148.531 421.564 148.398 421.904 148.332C422.248 148.266 422.611 148.232 422.994 148.232C423.26 148.232 423.516 148.248 423.762 148.279C424.008 148.307 424.26 148.348 424.518 148.402L425.01 145.713H426.082L424.447 155H423.404ZM424.365 149.299C424.236 149.275 424.105 149.254 423.973 149.234C423.84 149.215 423.711 149.199 423.586 149.188C423.461 149.176 423.342 149.166 423.229 149.158C423.115 149.15 423.014 149.146 422.924 149.146C422.658 149.146 422.414 149.172 422.191 149.223C421.969 149.27 421.77 149.367 421.594 149.516C421.422 149.664 421.271 149.873 421.143 150.143C421.018 150.412 420.916 150.768 420.838 151.209L420.633 152.346C420.617 152.428 420.605 152.5 420.598 152.562C420.59 152.621 420.584 152.676 420.58 152.727C420.576 152.777 420.574 152.826 420.574 152.873C420.574 152.916 420.574 152.961 420.574 153.008C420.574 153.434 420.678 153.746 420.885 153.945C421.096 154.145 421.428 154.244 421.881 154.244C422.182 154.244 422.471 154.207 422.748 154.133C423.025 154.055 423.301 153.955 423.574 153.834L424.365 149.299ZM430.342 155L430.389 154.666C430.146 154.799 429.859 154.916 429.527 155.018C429.199 155.119 428.842 155.17 428.455 155.17C427.803 155.17 427.303 154.988 426.955 154.625C426.611 154.258 426.439 153.723 426.439 153.02C426.439 152.887 426.445 152.748 426.457 152.604C426.473 152.455 426.496 152.303 426.527 152.146L426.727 151.004C426.797 150.609 426.889 150.268 427.002 149.979C427.119 149.689 427.254 149.443 427.406 149.24C427.562 149.033 427.736 148.865 427.928 148.736C428.119 148.604 428.326 148.5 428.549 148.426C428.771 148.352 429.008 148.301 429.258 148.273C429.512 148.246 429.777 148.232 430.055 148.232C430.203 148.232 430.377 148.236 430.576 148.244C430.775 148.248 430.986 148.258 431.209 148.273C431.432 148.285 431.656 148.303 431.883 148.326C432.113 148.346 432.332 148.371 432.539 148.402L431.385 155H430.342ZM431.314 149.217C431.189 149.205 431.057 149.195 430.916 149.188C430.775 149.18 430.641 149.174 430.512 149.17C430.383 149.162 430.264 149.156 430.154 149.152C430.049 149.148 429.967 149.146 429.908 149.146C429.631 149.146 429.377 149.172 429.146 149.223C428.92 149.27 428.717 149.367 428.537 149.516C428.361 149.664 428.209 149.873 428.08 150.143C427.955 150.412 427.854 150.768 427.775 151.209L427.57 152.346C427.547 152.498 427.531 152.621 427.523 152.715C427.516 152.805 427.512 152.898 427.512 152.996C427.512 153.422 427.617 153.736 427.828 153.939C428.043 154.143 428.377 154.244 428.83 154.244C429.123 154.244 429.408 154.207 429.686 154.133C429.963 154.055 430.238 153.955 430.512 153.834L431.314 149.217ZM436.664 154.988C436.617 155.004 436.549 155.021 436.459 155.041C436.373 155.061 436.273 155.08 436.16 155.1C436.051 155.119 435.932 155.135 435.803 155.146C435.674 155.162 435.545 155.17 435.416 155.17C434.932 155.17 434.582 155.068 434.367 154.865C434.156 154.662 434.051 154.359 434.051 153.957C434.051 153.867 434.055 153.771 434.062 153.67C434.074 153.564 434.09 153.455 434.109 153.342L434.818 149.299L433.512 149.205L433.641 148.402H434.977L435.287 146.686H436.365L436.055 148.402H437.818L437.66 149.299H435.896L435.164 153.441C435.145 153.543 435.129 153.635 435.117 153.717C435.109 153.799 435.105 153.871 435.105 153.934C435.105 154.09 435.15 154.191 435.24 154.238C435.33 154.281 435.486 154.303 435.709 154.303C435.799 154.303 435.895 154.301 435.996 154.297C436.102 154.293 436.205 154.289 436.307 154.285C436.408 154.277 436.502 154.271 436.588 154.268C436.674 154.26 436.744 154.252 436.799 154.244L436.664 154.988ZM443.777 152.346C443.609 153.307 443.254 154.018 442.711 154.479C442.168 154.939 441.447 155.17 440.549 155.17C440.135 155.17 439.775 155.117 439.471 155.012C439.17 154.91 438.92 154.766 438.721 154.578C438.521 154.387 438.373 154.156 438.275 153.887C438.182 153.613 438.135 153.309 438.135 152.973C438.135 152.789 438.141 152.615 438.152 152.451C438.168 152.287 438.188 152.133 438.211 151.988L438.375 151.027C438.461 150.543 438.594 150.125 438.773 149.773C438.957 149.418 439.184 149.127 439.453 148.9C439.727 148.674 440.043 148.506 440.402 148.396C440.762 148.287 441.162 148.232 441.604 148.232C442.408 148.232 443.016 148.416 443.426 148.783C443.836 149.146 444.041 149.699 444.041 150.441C444.041 150.523 444.037 150.611 444.029 150.705C444.021 150.795 444.012 150.885 444 150.975C443.992 151.061 443.982 151.141 443.971 151.215C443.959 151.289 443.951 151.348 443.947 151.391L443.777 152.346ZM442.887 151.221C442.918 151.045 442.938 150.902 442.945 150.793C442.957 150.68 442.963 150.562 442.963 150.441C442.963 150.246 442.939 150.07 442.893 149.914C442.85 149.758 442.771 149.627 442.658 149.521C442.549 149.412 442.4 149.328 442.213 149.27C442.029 149.211 441.795 149.182 441.51 149.182C441.186 149.182 440.906 149.221 440.672 149.299C440.438 149.377 440.238 149.5 440.074 149.668C439.91 149.832 439.775 150.043 439.67 150.301C439.568 150.559 439.486 150.865 439.424 151.221L439.254 152.182C439.23 152.318 439.213 152.447 439.201 152.568C439.189 152.689 439.184 152.824 439.184 152.973C439.184 153.188 439.209 153.373 439.26 153.529C439.311 153.686 439.393 153.816 439.506 153.922C439.623 154.023 439.771 154.1 439.951 154.15C440.135 154.197 440.357 154.221 440.619 154.221C440.955 154.221 441.242 154.182 441.48 154.104C441.719 154.025 441.918 153.904 442.078 153.74C442.242 153.572 442.375 153.359 442.477 153.102C442.578 152.844 442.66 152.537 442.723 152.182L442.887 151.221ZM444.82 154.086C444.996 154.109 445.16 154.131 445.312 154.15C445.465 154.166 445.621 154.182 445.781 154.197C445.945 154.213 446.117 154.225 446.297 154.232C446.477 154.24 446.682 154.244 446.912 154.244C447.135 154.244 447.342 154.23 447.533 154.203C447.729 154.176 447.896 154.125 448.037 154.051C448.182 153.973 448.295 153.865 448.377 153.729C448.463 153.592 448.506 153.416 448.506 153.201C448.506 153.08 448.49 152.979 448.459 152.896C448.428 152.811 448.369 152.73 448.283 152.656C448.197 152.578 448.08 152.5 447.932 152.422C447.787 152.34 447.6 152.244 447.369 152.135L446.936 151.93C446.678 151.809 446.453 151.686 446.262 151.561C446.074 151.436 445.918 151.303 445.793 151.162C445.672 151.018 445.582 150.861 445.523 150.693C445.465 150.521 445.436 150.328 445.436 150.113C445.436 149.73 445.51 149.418 445.658 149.176C445.807 148.93 446.002 148.738 446.244 148.602C446.49 148.461 446.768 148.365 447.076 148.314C447.389 148.26 447.709 148.232 448.037 148.232C448.51 148.232 448.922 148.26 449.273 148.314C449.625 148.365 449.906 148.418 450.117 148.473L449.971 149.311C449.58 149.256 449.227 149.217 448.91 149.193C448.598 149.17 448.303 149.158 448.025 149.158C447.857 149.158 447.684 149.166 447.504 149.182C447.328 149.197 447.168 149.236 447.023 149.299C446.879 149.361 446.76 149.455 446.666 149.58C446.572 149.705 446.525 149.879 446.525 150.102C446.525 150.195 446.541 150.281 446.572 150.359C446.607 150.434 446.662 150.506 446.736 150.576C446.814 150.643 446.914 150.711 447.035 150.781C447.16 150.848 447.314 150.922 447.498 151.004L447.955 151.209C448.256 151.346 448.512 151.477 448.723 151.602C448.934 151.727 449.104 151.861 449.232 152.006C449.365 152.15 449.461 152.312 449.52 152.492C449.582 152.668 449.613 152.875 449.613 153.113C449.613 153.445 449.549 153.74 449.42 153.998C449.295 154.252 449.109 154.467 448.863 154.643C448.621 154.814 448.324 154.945 447.973 155.035C447.621 155.125 447.223 155.17 446.777 155.17C446.547 155.17 446.316 155.158 446.086 155.135C445.855 155.115 445.645 155.092 445.453 155.064C445.262 155.037 445.096 155.01 444.955 154.982C444.818 154.951 444.727 154.926 444.68 154.906L444.82 154.086Z" fill="#505D66"/>
</svg>
