<svg width="82" height="86" viewBox="0 0 82 86" fill="none" xmlns="http://www.w3.org/2000/svg">
<path fill-rule="evenodd" clip-rule="evenodd" d="M31 6C14.9837 6 2 18.9837 2 35C2 51.0163 14.9837 64 31 64C39.0084 64 46.257 60.7552 51.5061 55.5061C56.7552 50.257 60 43.0084 60 35C60 18.9837 47.0163 6 31 6ZM0 35C0 17.8792 13.8792 4 31 4C48.1208 4 62 17.8792 62 35C62 43.2004 58.8147 50.6585 53.6161 56.2019L81.7071 84.2929C82.0976 84.6834 82.0976 85.3166 81.7071 85.7071C81.3166 86.0976 80.6834 86.0976 80.2929 85.7071L52.2019 57.6161C46.6585 62.8147 39.2004 66 31 66C13.8792 66 0 52.1208 0 35ZM31 16C26.0294 16 22 20.0294 22 25C22 25.5523 21.5523 26 21 26C20.4477 26 20 25.5523 20 25C20 18.9249 24.9249 14 31 14C37.0751 14 42 18.9249 42 25C42 29.9764 37.9426 35.2881 32 35.8298V45C32 45.5523 31.5523 46 31 46C30.4477 46 30 45.5523 30 45V34.875C30 34.3227 30.4477 33.875 31 33.875C36.2673 33.875 40 29.2605 40 25C40 20.0294 35.9706 16 31 16ZM31 50.75C31.5523 50.75 32 51.1977 32 51.75V55C32 55.5523 31.5523 56 31 56C30.4477 56 30 55.5523 30 55V51.75C30 51.1977 30.4477 50.75 31 50.75Z" fill="#19242D"/>
<circle cx="36" cy="30" r="30" fill="#D1DEE7"/>
<path fill-rule="evenodd" clip-rule="evenodd" d="M31 6C14.9837 6 2 18.9837 2 35C2 51.0163 14.9837 64 31 64C39.0084 64 46.257 60.7552 51.5061 55.5061C56.7552 50.257 60 43.0084 60 35C60 18.9837 47.0163 6 31 6ZM0 35C0 17.8792 13.8792 4 31 4C48.1208 4 62 17.8792 62 35C62 43.2004 58.8147 50.6585 53.6161 56.2019L81.7071 84.2929C82.0976 84.6834 82.0976 85.3166 81.7071 85.7071C81.3166 86.0976 80.6834 86.0976 80.2929 85.7071L52.2019 57.6161C46.6585 62.8147 39.2004 66 31 66C13.8792 66 0 52.1208 0 35ZM31 16C26.0294 16 22 20.0294 22 25C22 25.5523 21.5523 26 21 26C20.4477 26 20 25.5523 20 25C20 18.9249 24.9249 14 31 14C37.0751 14 42 18.9249 42 25C42 29.9764 37.9426 35.2881 32 35.8298V45C32 45.5523 31.5523 46 31 46C30.4477 46 30 45.5523 30 45V34.875C30 34.3227 30.4477 33.875 31 33.875C36.2673 33.875 40 29.2605 40 25C40 20.0294 35.9706 16 31 16ZM31 50.75C31.5523 50.75 32 51.1977 32 51.75V55C32 55.5523 31.5523 56 31 56C30.4477 56 30 55.5523 30 55V51.75C30 51.1977 30.4477 50.75 31 50.75Z" fill="#5D87A1"/>
</svg>
