<svg width="83" height="87" viewBox="0 0 83 87" fill="none" xmlns="http://www.w3.org/2000/svg">
<path fill-rule="evenodd" clip-rule="evenodd" d="M41.5 7C31.0066 7 22.5 15.5066 22.5 26C22.5 36.4934 31.0066 45 41.5 45C51.9934 45 60.5 36.4934 60.5 26C60.5 15.5066 51.9934 7 41.5 7ZM20.5 26C20.5 14.402 29.902 5 41.5 5C53.098 5 62.5 14.402 62.5 26C62.5 37.598 53.098 47 41.5 47C29.902 47 20.5 37.598 20.5 26ZM31.5 57C15.4837 57 2.5 69.9837 2.5 86C2.5 86.5523 2.05228 87 1.5 87C0.947715 87 0.5 86.5523 0.5 86C0.5 68.8792 14.3792 55 31.5 55H51.5C68.6208 55 82.5 68.8792 82.5 86C82.5 86.5523 82.0523 87 81.5 87C80.9477 87 80.5 86.5523 80.5 86C80.5 69.9837 67.5163 57 51.5 57H31.5Z" fill="#19242D"/>
<path d="M66.5 20C66.5 31.0457 57.5457 40 46.5 40C35.4543 40 26.5 31.0457 26.5 20C26.5 8.9543 35.4543 0 46.5 0C57.5457 0 66.5 8.9543 66.5 20Z" fill="#D1DEE7"/>
<path fill-rule="evenodd" clip-rule="evenodd" d="M41.5 7C31.0066 7 22.5 15.5066 22.5 26C22.5 36.4934 31.0066 45 41.5 45C51.9934 45 60.5 36.4934 60.5 26C60.5 15.5066 51.9934 7 41.5 7ZM20.5 26C20.5 14.402 29.902 5 41.5 5C53.098 5 62.5 14.402 62.5 26C62.5 37.598 53.098 47 41.5 47C29.902 47 20.5 37.598 20.5 26ZM31.5 57C15.4837 57 2.5 69.9837 2.5 86C2.5 86.5523 2.05228 87 1.5 87C0.947715 87 0.5 86.5523 0.5 86C0.5 68.8792 14.3792 55 31.5 55H51.5C68.6208 55 82.5 68.8792 82.5 86C82.5 86.5523 82.0523 87 81.5 87C80.9477 87 80.5 86.5523 80.5 86C80.5 69.9837 67.5163 57 51.5 57H31.5Z" fill="#5D87A1"/>
</svg>
